<svg width="76" height="72" viewBox="0 0 76 72" fill="none" xmlns="http://www.w3.org/2000/svg">
<path fill-rule="evenodd" clip-rule="evenodd" d="M9.61467 0C15.4717 0 20.3796 4.19977 24.6473 8.21118C28.1364 11.4908 32.8336 13.5 38 13.5C43.1664 13.5 47.8636 11.4908 51.3527 8.21118C55.6204 4.19977 60.5283 0 66.3853 0H66.875C71.8456 0 75.875 4.02627 75.875 8.99683V60.7229C75.875 66.9511 71.5098 72 66.125 72H9.875C4.49022 72 0.125 66.9511 0.125 60.7229V8.99683C0.125 4.02627 4.15444 0 9.125 0H9.61467ZM27.125 24.75V19.875H17.375V24.75C17.375 36.0009 26.9757 44.625 38.1875 44.625C49.3993 44.625 59 36.0009 59 24.75V19.875H49.25V24.75C49.25 30.0677 44.5798 34.875 38.1875 34.875C31.7952 34.875 27.125 30.0677 27.125 24.75Z" fill="#332FFC"/>
<g filter="url(#filter0_d_84_9724)">
<path d="M27.125 24.75V19.875H17.375V24.75C17.375 36.0009 26.9757 44.625 38.1875 44.625C49.3993 44.625 59 36.0009 59 24.75V19.875H49.25V24.75C49.25 30.0677 44.5798 34.875 38.1875 34.875C31.7952 34.875 27.125 30.0677 27.125 24.75Z" fill="white"/>
</g>
<defs>
<filter id="filter0_d_84_9724" x="13.375" y="19.875" width="49.625" height="32.75" filterUnits="userSpaceOnUse" color-interpolation-filters="sRGB">
<feFlood flood-opacity="0" result="BackgroundImageFix"/>
<feColorMatrix in="SourceAlpha" type="matrix" values="0 0 0 0 0 0 0 0 0 0 0 0 0 0 0 0 0 0 127 0" result="hardAlpha"/>
<feOffset dy="4"/>
<feGaussianBlur stdDeviation="2"/>
<feComposite in2="hardAlpha" operator="out"/>
<feColorMatrix type="matrix" values="0 0 0 0 0 0 0 0 0 0 0 0 0 0 0 0 0 0 0.25 0"/>
<feBlend mode="normal" in2="BackgroundImageFix" result="effect1_dropShadow_84_9724"/>
<feBlend mode="normal" in="SourceGraphic" in2="effect1_dropShadow_84_9724" result="shape"/>
</filter>
</defs>
</svg>
