<svg width="499" height="160" viewBox="0 0 499 160" fill="none" xmlns="http://www.w3.org/2000/svg">
<path fill-rule="evenodd" clip-rule="evenodd" d="M57.3957 40C63.1947 40 68.0541 44.1582 72.2795 48.1299C75.7341 51.377 80.3847 53.3663 85.5 53.3663C90.6153 53.3663 95.2659 51.377 98.7205 48.1299C102.946 44.1582 107.805 40 113.604 40H114.089C119.01 40 123 43.9864 123 48.9078V100.122C123 106.288 118.678 111.287 113.347 111.287H57.6535C52.322 111.287 48 106.288 48 100.122V48.9078C48 43.9864 51.9895 40 56.9109 40H57.3957ZM74.7327 64.505V59.6782H65.0792V64.505C65.0792 75.6444 74.5849 84.1832 85.6856 84.1832C96.7864 84.1832 106.292 75.6444 106.292 64.505V59.6782H96.6386V64.505C96.6386 69.77 92.0147 74.5297 85.6856 74.5297C79.3566 74.5297 74.7327 69.77 74.7327 64.505Z" fill="#332FFC"/>
<g filter="url(#filter0_d_98_13258)">
<path d="M74.7326 64.5051V59.6783H65.0791V64.5051C65.0791 75.6446 74.5848 84.1833 85.6855 84.1833C96.7863 84.1833 106.292 75.6446 106.292 64.5051V59.6783H96.6385V64.5051C96.6385 69.7701 92.0145 74.5298 85.6855 74.5298C79.3565 74.5298 74.7326 69.7701 74.7326 64.5051Z" fill="white"/>
</g>
<path d="M144.276 42.935C144.761 42.935 145.264 43.0736 145.784 43.351C146.339 43.5936 146.755 43.923 147.032 44.339L159.668 63.787L157.068 63.683L170.016 44.339C170.675 43.403 171.524 42.935 172.564 42.935C173.396 42.935 174.141 43.2296 174.8 43.819C175.459 44.4083 175.788 45.171 175.788 46.107V76.215C175.788 77.1163 175.493 77.879 174.904 78.503C174.315 79.0923 173.535 79.387 172.564 79.387C171.593 79.387 170.796 79.0923 170.172 78.503C169.583 77.879 169.288 77.1163 169.288 76.215V51.723L171.316 52.191L160.708 68.363C160.396 68.7443 159.997 69.0736 159.512 69.351C159.061 69.6283 158.593 69.7496 158.108 69.715C157.657 69.7496 157.189 69.6283 156.704 69.351C156.253 69.0736 155.872 68.7443 155.56 68.363L145.628 52.659L146.98 49.903V76.215C146.98 77.1163 146.703 77.879 146.148 78.503C145.593 79.0923 144.865 79.387 143.964 79.387C143.097 79.387 142.387 79.0923 141.832 78.503C141.277 77.879 141 77.1163 141 76.215V46.107C141 45.2403 141.312 44.495 141.936 43.871C142.595 43.247 143.375 42.935 144.276 42.935Z" fill="#332FFC"/>
<path d="M205.861 51.047C206.763 51.047 207.508 51.3416 208.097 51.931C208.687 52.5203 208.981 53.283 208.981 54.219V76.215C208.981 77.1163 208.687 77.879 208.097 78.503C207.508 79.0923 206.763 79.387 205.861 79.387C204.96 79.387 204.215 79.0923 203.625 78.503C203.036 77.879 202.741 77.1163 202.741 76.215V73.667L203.885 74.135C203.885 74.5856 203.643 75.1403 203.157 75.799C202.672 76.423 202.013 77.047 201.181 77.671C200.349 78.295 199.361 78.8323 198.217 79.283C197.108 79.699 195.895 79.907 194.577 79.907C192.185 79.907 190.019 79.3003 188.077 78.087C186.136 76.839 184.593 75.1403 183.449 72.991C182.34 70.807 181.785 68.311 181.785 65.503C181.785 62.6603 182.34 60.1643 183.449 58.015C184.593 55.831 186.119 54.1323 188.025 52.919C189.932 51.671 192.047 51.047 194.369 51.047C195.86 51.047 197.229 51.2723 198.477 51.723C199.725 52.1736 200.8 52.7456 201.701 53.439C202.637 54.1323 203.348 54.843 203.833 55.571C204.353 56.2643 204.613 56.8536 204.613 57.339L202.741 58.015V54.219C202.741 53.3176 203.036 52.5723 203.625 51.983C204.215 51.359 204.96 51.047 205.861 51.047ZM195.357 74.187C196.883 74.187 198.217 73.8057 199.361 73.043C200.505 72.2803 201.389 71.2403 202.013 69.923C202.672 68.6056 203.001 67.1323 203.001 65.503C203.001 63.839 202.672 62.3483 202.013 61.031C201.389 59.7136 200.505 58.6736 199.361 57.911C198.217 57.1483 196.883 56.767 195.357 56.767C193.867 56.767 192.549 57.1483 191.405 57.911C190.261 58.6736 189.36 59.7136 188.701 61.031C188.077 62.3483 187.765 63.839 187.765 65.503C187.765 67.1323 188.077 68.6056 188.701 69.923C189.36 71.2403 190.261 72.2803 191.405 73.043C192.549 73.8057 193.867 74.187 195.357 74.187Z" fill="#332FFC"/>
<path d="M218.858 79.387C217.956 79.387 217.211 79.0923 216.622 78.503C216.032 77.879 215.738 77.1163 215.738 76.215V54.739C215.738 53.8376 216.032 53.0923 216.622 52.503C217.211 51.879 217.956 51.567 218.858 51.567C219.759 51.567 220.504 51.879 221.094 52.503C221.683 53.0923 221.978 53.8376 221.978 54.739V59.627L221.614 56.143C221.995 55.311 222.48 54.583 223.07 53.959C223.694 53.3003 224.387 52.763 225.15 52.347C225.912 51.8963 226.727 51.567 227.594 51.359C228.46 51.151 229.327 51.047 230.194 51.047C231.234 51.047 232.1 51.3416 232.794 51.931C233.522 52.5203 233.886 53.2136 233.886 54.011C233.886 55.155 233.591 55.987 233.002 56.507C232.412 56.9923 231.771 57.235 231.078 57.235C230.419 57.235 229.812 57.1136 229.258 56.871C228.738 56.6283 228.131 56.507 227.438 56.507C226.814 56.507 226.172 56.663 225.514 56.975C224.89 57.2523 224.3 57.703 223.746 58.327C223.226 58.951 222.792 59.731 222.446 60.667C222.134 61.5683 221.978 62.643 221.978 63.891V76.215C221.978 77.1163 221.683 77.879 221.094 78.503C220.504 79.0923 219.759 79.387 218.858 79.387Z" fill="#332FFC"/>
<path d="M241.925 79.387C241.023 79.387 240.278 79.0923 239.689 78.503C239.099 77.879 238.805 77.1163 238.805 76.215V44.079C238.805 43.1776 239.099 42.4323 239.689 41.843C240.278 41.219 241.023 40.907 241.925 40.907C242.826 40.907 243.571 41.219 244.161 41.843C244.75 42.4323 245.045 43.1776 245.045 44.079V76.215C245.045 77.1163 244.75 77.879 244.161 78.503C243.571 79.0923 242.826 79.387 241.925 79.387ZM258.461 51.567C259.258 51.567 259.951 51.8963 260.541 52.555C261.13 53.2136 261.425 53.855 261.425 54.479C261.425 55.311 261.009 56.091 260.177 56.819L244.525 71.223L244.265 64.047L256.173 52.555C256.831 51.8963 257.594 51.567 258.461 51.567ZM259.241 79.335C258.339 79.335 257.577 78.9883 256.953 78.295L247.333 68.103L252.065 63.735L261.425 73.927C262.083 74.6203 262.413 75.4003 262.413 76.267C262.413 77.1683 262.049 77.9136 261.321 78.503C260.627 79.0576 259.934 79.335 259.241 79.335Z" fill="#332FFC"/>
<path d="M279.826 79.907C276.88 79.907 274.314 79.3003 272.13 78.087C269.981 76.839 268.317 75.1577 267.138 73.043C265.994 70.9283 265.422 68.5363 265.422 65.867C265.422 62.747 266.046 60.095 267.294 57.911C268.577 55.6923 270.241 53.9936 272.286 52.815C274.332 51.6363 276.498 51.047 278.786 51.047C280.554 51.047 282.218 51.411 283.778 52.139C285.373 52.867 286.777 53.8723 287.99 55.155C289.204 56.403 290.157 57.859 290.85 59.523C291.578 61.187 291.942 62.955 291.942 64.827C291.908 65.659 291.578 66.335 290.954 66.855C290.33 67.375 289.602 67.635 288.77 67.635H268.906L267.346 62.435H286.43L285.286 63.475V62.071C285.217 61.0656 284.853 60.1643 284.194 59.367C283.57 58.5696 282.773 57.9456 281.802 57.495C280.866 57.0096 279.861 56.767 278.786 56.767C277.746 56.767 276.776 56.9056 275.874 57.183C274.973 57.4603 274.193 57.9283 273.534 58.587C272.876 59.2456 272.356 60.1296 271.974 61.239C271.593 62.3483 271.402 63.7523 271.402 65.451C271.402 67.323 271.784 68.9176 272.546 70.235C273.344 71.5176 274.349 72.5056 275.562 73.199C276.81 73.8576 278.128 74.187 279.514 74.187C280.797 74.187 281.82 74.083 282.582 73.875C283.345 73.667 283.952 73.4243 284.402 73.147C284.888 72.835 285.321 72.575 285.702 72.367C286.326 72.055 286.916 71.899 287.47 71.899C288.233 71.899 288.857 72.159 289.342 72.679C289.862 73.199 290.122 73.8056 290.122 74.499C290.122 75.435 289.637 76.2843 288.666 77.047C287.765 77.8096 286.5 78.4856 284.87 79.075C283.241 79.6296 281.56 79.907 279.826 79.907Z" fill="#332FFC"/>
<path d="M297.706 52.087H310.03C310.862 52.087 311.555 52.3643 312.11 52.919C312.665 53.4736 312.942 54.167 312.942 54.999C312.942 55.7963 312.665 56.4723 312.11 57.027C311.555 57.547 310.862 57.807 310.03 57.807H297.706C296.874 57.807 296.181 57.5296 295.626 56.975C295.071 56.4203 294.794 55.727 294.794 54.895C294.794 54.0976 295.071 53.439 295.626 52.919C296.181 52.3643 296.874 52.087 297.706 52.087ZM303.27 45.587C304.171 45.587 304.899 45.899 305.454 46.523C306.043 47.1123 306.338 47.8576 306.338 48.759V71.899C306.338 72.3843 306.425 72.783 306.598 73.095C306.806 73.407 307.066 73.6323 307.378 73.771C307.725 73.9097 308.089 73.979 308.47 73.979C308.886 73.979 309.267 73.9097 309.614 73.771C309.961 73.5977 310.359 73.511 310.81 73.511C311.295 73.511 311.729 73.7363 312.11 74.187C312.526 74.6376 312.734 75.2616 312.734 76.059C312.734 77.0296 312.197 77.827 311.122 78.451C310.082 79.075 308.955 79.387 307.742 79.387C307.014 79.387 306.199 79.335 305.298 79.231C304.431 79.0923 303.599 78.7976 302.802 78.347C302.039 77.8616 301.398 77.1336 300.878 76.163C300.358 75.1923 300.098 73.8576 300.098 72.159V48.759C300.098 47.8576 300.393 47.1123 300.982 46.523C301.606 45.899 302.369 45.587 303.27 45.587Z" fill="#332FFC"/>
<path d="M338.29 52.607C340.647 52.607 342.727 53.1963 344.53 54.375C346.367 55.519 347.823 57.1136 348.898 59.159C349.972 61.1696 350.51 63.4923 350.51 66.127C350.51 68.7616 349.972 71.1017 348.898 73.147C347.823 75.1923 346.367 76.8043 344.53 77.983C342.692 79.1616 340.63 79.751 338.342 79.751C337.128 79.751 335.967 79.5777 334.858 79.231C333.783 78.8497 332.795 78.347 331.894 77.723C330.992 77.099 330.195 76.371 329.502 75.539C328.808 74.6723 328.254 73.7363 327.838 72.731L328.774 72.055V88.227C328.774 88.643 328.618 89.007 328.306 89.319C328.028 89.631 327.664 89.787 327.214 89.787C326.763 89.787 326.382 89.631 326.07 89.319C325.792 89.007 325.654 88.643 325.654 88.227V54.323C325.654 53.8723 325.792 53.491 326.07 53.179C326.347 52.867 326.728 52.711 327.214 52.711C327.664 52.711 328.028 52.867 328.306 53.179C328.618 53.491 328.774 53.8723 328.774 54.323V59.939L328.046 59.523C328.392 58.4483 328.895 57.495 329.554 56.663C330.247 55.7963 331.044 55.0683 331.946 54.479C332.847 53.855 333.835 53.387 334.91 53.075C335.984 52.763 337.111 52.607 338.29 52.607ZM338.03 55.519C336.158 55.519 334.511 55.987 333.09 56.923C331.668 57.8243 330.542 59.0723 329.71 60.667C328.912 62.227 328.514 64.047 328.514 66.127C328.514 68.1723 328.912 70.0096 329.71 71.639C330.542 73.2683 331.668 74.551 333.09 75.487C334.511 76.3883 336.158 76.839 338.03 76.839C339.867 76.839 341.479 76.3883 342.866 75.487C344.287 74.551 345.414 73.2683 346.246 71.639C347.078 70.0096 347.494 68.1723 347.494 66.127C347.494 64.0816 347.078 62.2616 346.246 60.667C345.414 59.0723 344.287 57.8243 342.866 56.923C341.479 55.987 339.867 55.519 338.03 55.519Z" fill="#332FFC"/>
<path d="M360.621 77.827C360.621 78.243 360.465 78.607 360.153 78.919C359.841 79.231 359.477 79.387 359.061 79.387C358.61 79.387 358.229 79.231 357.917 78.919C357.639 78.607 357.501 78.243 357.501 77.827V42.467C357.501 42.051 357.657 41.687 357.969 41.375C358.281 41.063 358.645 40.907 359.061 40.907C359.511 40.907 359.875 41.063 360.153 41.375C360.465 41.687 360.621 42.051 360.621 42.467V77.827Z" fill="#332FFC"/>
<path d="M390.961 52.815C391.412 52.815 391.776 52.971 392.053 53.283C392.365 53.595 392.521 53.9763 392.521 54.427V77.827C392.521 78.243 392.365 78.607 392.053 78.919C391.741 79.231 391.377 79.387 390.961 79.387C390.51 79.387 390.129 79.231 389.817 78.919C389.54 78.607 389.401 78.243 389.401 77.827V71.639L390.285 71.223C390.285 72.1936 390.008 73.1816 389.453 74.187C388.933 75.1923 388.205 76.1283 387.269 76.995C386.333 77.8617 385.224 78.5723 383.941 79.127C382.693 79.647 381.341 79.907 379.885 79.907C377.528 79.907 375.413 79.3003 373.541 78.087C371.704 76.8736 370.248 75.2096 369.173 73.095C368.133 70.9803 367.613 68.6056 367.613 65.971C367.613 63.267 368.15 60.8923 369.225 58.847C370.3 56.767 371.756 55.1376 373.593 53.959C375.43 52.7803 377.51 52.191 379.833 52.191C381.324 52.191 382.71 52.451 383.993 52.971C385.31 53.491 386.454 54.2016 387.425 55.103C388.396 56.0043 389.141 57.0443 389.661 58.223C390.216 59.367 390.493 60.563 390.493 61.811L389.401 61.031V54.427C389.401 53.9763 389.54 53.595 389.817 53.283C390.129 52.971 390.51 52.815 390.961 52.815ZM380.145 76.995C381.982 76.995 383.612 76.527 385.033 75.591C386.454 74.6203 387.564 73.303 388.361 71.639C389.193 69.9403 389.609 68.051 389.609 65.971C389.609 63.9256 389.193 62.0883 388.361 60.459C387.564 58.8296 386.454 57.5296 385.033 56.559C383.612 55.5883 381.982 55.103 380.145 55.103C378.342 55.103 376.713 55.571 375.257 56.507C373.836 57.443 372.709 58.7256 371.877 60.355C371.08 61.9843 370.681 63.8563 370.681 65.971C370.681 68.051 371.08 69.9403 371.877 71.639C372.709 73.303 373.836 74.6203 375.257 75.591C376.678 76.527 378.308 76.995 380.145 76.995Z" fill="#332FFC"/>
<path d="M412.408 52.191C414.072 52.191 415.598 52.3816 416.984 52.763C418.371 53.1096 419.48 53.595 420.312 54.219C421.179 54.843 421.612 55.519 421.612 56.247C421.612 56.5936 421.491 56.9403 421.248 57.287C421.006 57.599 420.676 57.755 420.26 57.755C419.844 57.755 419.498 57.651 419.22 57.443C418.978 57.235 418.718 56.9923 418.44 56.715C418.198 56.4376 417.834 56.1776 417.348 55.935C416.898 55.727 416.256 55.5363 415.424 55.363C414.592 55.1896 413.639 55.103 412.564 55.103C410.623 55.103 408.872 55.5883 407.312 56.559C405.752 57.5296 404.522 58.847 403.62 60.511C402.719 62.1403 402.268 63.9776 402.268 66.023C402.268 68.103 402.702 69.975 403.568 71.639C404.435 73.303 405.631 74.6203 407.156 75.591C408.682 76.527 410.467 76.995 412.512 76.995C413.899 76.995 414.974 76.8736 415.736 76.631C416.499 76.3883 417.158 76.111 417.712 75.799C418.371 75.4176 418.839 75.0536 419.116 74.707C419.428 74.3256 419.827 74.135 420.312 74.135C420.763 74.135 421.092 74.2737 421.3 74.551C421.543 74.7937 421.664 75.123 421.664 75.539C421.664 76.0936 421.248 76.7177 420.416 77.411C419.619 78.0697 418.51 78.659 417.088 79.179C415.667 79.6643 414.038 79.907 412.2 79.907C409.6 79.907 407.312 79.3003 405.336 78.087C403.395 76.8736 401.87 75.227 400.76 73.147C399.686 71.0323 399.148 68.6576 399.148 66.023C399.148 63.4923 399.703 61.187 400.812 59.107C401.922 57.027 403.464 55.363 405.44 54.115C407.451 52.8323 409.774 52.191 412.408 52.191Z" fill="#332FFC"/>
<path d="M439.634 79.907C436.965 79.907 434.608 79.335 432.562 78.191C430.517 77.047 428.922 75.4523 427.778 73.407C426.634 71.3616 426.062 68.9696 426.062 66.231C426.062 63.2843 426.634 60.771 427.778 58.691C428.957 56.611 430.465 55.0163 432.302 53.907C434.174 52.763 436.15 52.191 438.23 52.191C439.756 52.191 441.229 52.4683 442.65 53.023C444.106 53.543 445.389 54.3403 446.498 55.415C447.642 56.455 448.544 57.7376 449.202 59.263C449.896 60.7883 450.277 62.5563 450.346 64.567C450.312 64.983 450.138 65.347 449.826 65.659C449.514 65.9363 449.15 66.075 448.734 66.075H427.882L427.258 63.267H447.746L447.07 63.891V62.851C446.932 61.2216 446.412 59.835 445.51 58.691C444.609 57.547 443.517 56.6803 442.234 56.091C440.952 55.5016 439.617 55.207 438.23 55.207C437.19 55.207 436.116 55.415 435.006 55.831C433.932 56.247 432.944 56.9056 432.042 57.807C431.176 58.6736 430.465 59.8003 429.91 61.187C429.356 62.539 429.078 64.151 429.078 66.023C429.078 68.0683 429.494 69.923 430.326 71.587C431.158 73.251 432.354 74.5683 433.914 75.539C435.509 76.5096 437.398 76.995 439.582 76.995C440.796 76.995 441.888 76.8216 442.858 76.475C443.829 76.1283 444.678 75.6776 445.406 75.123C446.134 74.5336 446.741 73.927 447.226 73.303C447.608 72.991 447.989 72.835 448.37 72.835C448.717 72.835 449.012 72.9737 449.254 73.251C449.532 73.5283 449.67 73.8403 449.67 74.187C449.67 74.603 449.497 74.967 449.15 75.279C448.11 76.527 446.758 77.619 445.094 78.555C443.43 79.4563 441.61 79.907 439.634 79.907Z" fill="#332FFC"/>
<path d="M151.621 106.415H151.626C151.254 106.816 150.798 107.129 150.29 107.333C149.785 107.535 149.245 107.638 148.701 107.637C147.549 107.637 146.6 107.238 145.77 106.415C145.376 106.026 145.066 105.561 144.858 105.048C144.658 104.551 144.553 104.02 144.548 103.484C144.553 102.953 144.658 102.426 144.858 101.934C145.061 101.429 145.37 100.973 145.764 100.597H145.778C146.157 100.213 146.608 99.9079 147.105 99.6983C147.602 99.4888 148.136 99.3793 148.675 99.3762C149.214 99.3731 149.749 99.4764 150.249 99.6802C150.748 99.884 151.202 100.184 151.586 100.564L151.62 100.597L152.919 101.846L155.417 99.2982L154.162 98.0431C153.433 97.2997 152.552 96.723 151.579 96.3527C150.668 95.9711 149.69 95.7739 148.702 95.7722C147.7 95.7768 146.708 95.976 145.782 96.3587C144.825 96.7383 143.956 97.313 143.233 98.0461C142.5 98.7686 141.926 99.6366 141.549 100.594C140.817 102.457 140.817 104.528 141.549 106.391C141.927 107.35 142.501 108.22 143.233 108.946C143.959 109.678 144.823 110.259 145.775 110.656H145.816C146.741 111.017 147.724 111.204 148.716 111.208C149.692 111.194 150.66 111.029 151.585 110.719C152.551 110.267 153.424 109.689 154.152 108.948L155.401 107.699L152.909 105.17L151.621 106.415Z" fill="#332FFC"/>
<path d="M168.001 105.402L166.983 106.42C166.319 107.077 165.573 107.469 164.694 107.615C164.494 107.64 164.294 107.653 164.093 107.653C163.616 107.658 163.142 107.574 162.695 107.406L170.789 99.3119L169.531 98.0469C168.795 97.3068 167.911 96.7296 166.938 96.3526C166.017 95.9675 165.029 95.7697 164.032 95.7708C163.034 95.7718 162.046 95.9717 161.127 96.3587C160.169 96.7429 159.3 97.3169 158.571 98.0461C157.841 98.7754 157.267 99.6448 156.883 100.602C156.519 101.521 156.332 102.5 156.333 103.489C156.332 104.488 156.517 105.478 156.876 106.41V106.423C157.258 107.382 157.833 108.252 158.565 108.978C160.009 110.43 161.97 111.25 164.018 111.256C166.066 111.262 168.032 110.455 169.484 109.012L169.522 108.98L170.787 107.715L168.238 105.16L168.001 105.402ZM159.881 103.509C159.888 102.358 160.286 101.41 161.102 100.588C161.766 99.9303 162.499 99.5512 163.353 99.4311C163.561 99.4003 163.77 99.3853 163.979 99.3863C164.458 99.3824 164.934 99.4661 165.383 99.6332C165.124 99.8923 164.801 100.202 164.422 100.563L162.675 102.311L160.962 104.018L160.126 104.86C159.968 104.426 159.887 103.967 159.886 103.506L159.881 103.509ZM168.194 105.643L167.979 105.428L168.194 105.637V105.643Z" fill="#332FFC"/>
<path d="M200.252 105.186L198.949 106.444C198.577 106.842 198.121 107.153 197.615 107.355C197.11 107.557 196.572 107.66 196.028 107.659C194.877 107.652 193.922 107.26 193.1 106.438C192.703 106.049 192.39 105.582 192.183 105.066C191.777 104.068 191.777 102.95 192.183 101.951C192.385 101.447 192.697 100.993 193.095 100.623C193.669 100.047 194.401 99.6532 195.198 99.491C195.996 99.3288 196.823 99.4056 197.577 99.7115C198.092 99.9191 198.559 100.229 198.949 100.623L200.246 101.881L202.763 99.3263L201.506 98.0712C200.771 97.3293 199.888 96.7515 198.914 96.3762C197.999 95.9953 197.018 95.7978 196.027 95.795C195.024 95.7989 194.031 95.9986 193.105 96.3831C192.145 96.7624 191.275 97.3373 190.55 98.0712C189.815 98.7957 189.24 99.6661 188.861 100.626C188.128 102.494 188.128 104.57 188.861 106.438C189.24 107.398 189.813 108.27 190.545 108.999C191.273 109.734 192.139 110.319 193.094 110.719H193.1C194.032 111.081 195.022 111.267 196.022 111.269C197.013 111.267 197.995 111.081 198.918 110.719C199.889 110.328 200.769 109.742 201.506 108.999L202.765 107.741L200.252 105.186Z" fill="#332FFC"/>
<path d="M219.259 103.47C219.265 102.438 218.682 100.468 218.682 100.468C218.304 99.5467 217.739 98.7144 217.023 98.0234C216.313 97.3084 215.467 96.7441 214.534 96.3641C213.586 95.9464 212.561 95.7348 211.525 95.7434C210.49 95.7392 209.465 95.9506 208.516 96.3641H208.501C207.564 96.747 206.714 97.3132 205.999 98.0295C205.293 98.7407 204.726 99.5783 204.328 100.499C203.958 101.367 203.767 102.298 203.741 103.386H203.8V103.639H203.807C203.832 104.707 204.015 105.618 204.369 106.478C204.369 106.478 205.313 108.239 206.003 108.955H206.009C206.715 109.67 207.557 110.236 208.486 110.62C209.432 111.036 210.455 111.245 211.488 111.235C212.526 111.252 213.555 111.042 214.503 110.62C215.432 110.239 216.277 109.676 216.987 108.965C217.697 108.254 218.259 107.408 218.639 106.478C219.055 105.53 219.266 104.505 219.259 103.47ZM215.246 105.021C215.082 105.522 214.795 105.974 214.41 106.334C214.033 106.7 213.59 106.992 213.104 107.194C212.064 107.596 210.913 107.596 209.873 107.194C209.376 107.001 208.924 106.709 208.543 106.335C208.162 105.962 207.862 105.515 207.659 105.021C207.464 104.554 207.361 104.054 207.355 103.548C207.355 103.127 207.456 102.365 207.659 101.888C207.868 101.408 208.168 100.973 208.542 100.607C208.922 100.231 209.375 99.9356 209.873 99.7404V99.7154H209.879C210.912 99.3135 212.058 99.3135 213.091 99.7154H213.104C213.587 99.9244 214.026 100.225 214.395 100.6H214.408C214.792 100.963 215.098 101.399 215.31 101.882V101.895C215.516 102.381 215.622 102.903 215.619 103.431C215.625 103.976 215.513 104.517 215.291 105.015L215.246 105.021Z" fill="#332FFC"/>
<path d="M235.763 106.568C235.763 105.937 235.632 105.314 235.378 104.737C235.371 104.731 235.397 104.725 235.397 104.725C235.149 104.162 234.794 103.652 234.352 103.225C233.924 102.797 233.41 102.465 232.845 102.249L232.832 102.237C232.256 101.977 231.001 101.806 231.001 101.806H225.181C225.034 101.811 224.887 101.786 224.75 101.731C224.612 101.677 224.488 101.595 224.384 101.49C224.171 101.264 224.053 100.965 224.055 100.654C224.049 100.362 224.16 100.079 224.362 99.8676C224.564 99.656 224.841 99.5331 225.134 99.5255H234.403V95.9213H225.269C225.269 95.9213 223.992 96.0307 223.404 96.289C222.852 96.5181 222.352 96.8537 221.93 97.2767C221.501 97.7248 221.144 98.2376 220.874 98.7961V98.8212C220.644 99.4015 220.529 100.021 220.533 100.645C220.533 101.281 220.874 102.504 220.874 102.504V102.497H220.88C221.129 103.051 221.475 103.556 221.9 103.989C222.313 104.418 222.802 104.766 223.344 105.013V105.026H223.35C223.945 105.247 225.209 105.406 225.209 105.406H230.92C231.044 105.406 231.168 105.425 231.286 105.463L231.4 105.552C231.656 105.819 231.799 106.174 231.799 106.544C231.799 106.914 231.656 107.27 231.4 107.537L231.286 107.632C231.167 107.665 231.044 107.682 230.92 107.683H221.886V111.287H230.998C231.627 111.287 232.832 110.971 232.832 110.971H232.838C233.4 110.72 233.913 110.37 234.352 109.939C234.789 109.507 235.135 108.992 235.371 108.425C235.629 107.84 235.762 107.207 235.763 106.568Z" fill="#332FFC"/>
<path d="M252.316 95.9843H248.762V103.544C248.787 104.097 248.68 104.649 248.452 105.154H248.446V105.124C248.247 105.627 247.945 106.084 247.56 106.464C246.967 107.034 246.222 107.421 245.415 107.579C244.607 107.738 243.771 107.66 243.007 107.356C242.524 107.13 242.08 106.829 241.692 106.464C241.322 106.071 241.023 105.618 240.807 105.124C240.595 104.61 240.504 104.054 240.541 103.499V95.6682H237V103.421C237 103.421 237.158 105.473 237.569 106.419C237.948 107.336 238.498 108.172 239.189 108.885C239.883 109.599 240.718 110.159 241.642 110.529H241.649C242.584 110.954 243.6 111.17 244.627 111.162C245.645 111.168 247.606 110.593 247.606 110.593H247.587C248.504 110.188 249.337 109.618 250.047 108.911C250.751 108.199 251.31 107.357 251.691 106.432C252.102 105.486 252.311 104.465 252.305 103.434L252.316 95.9843Z" fill="#332FFC"/>
<path d="M268.998 89.787H265.393V95.6682H261.298C260.274 95.6615 259.261 95.8701 258.323 96.2805C257.4 96.6595 256.56 97.2178 255.854 97.9231C255.145 98.6157 254.577 99.4393 254.183 100.348H254.134C254.084 100.468 254.039 100.588 253.995 100.709C253.575 101.922 253.451 103.218 253.634 104.489C253.723 105.176 253.906 105.847 254.179 106.483C254.877 108.15 256.18 109.491 257.826 110.238C257.933 110.289 258.041 110.352 258.154 110.403L258.053 110.656L258.161 110.403L258.287 110.466C260.082 111.194 262.081 111.243 263.91 110.605L263.935 110.65L263.916 110.605L264.276 110.466H264.283C265.197 110.073 266.027 109.505 266.724 108.794C267.433 108.087 267.996 107.247 268.38 106.321C268.793 105.383 269.004 104.367 269 103.342L268.998 89.787ZM265.526 103.453C265.527 104.018 265.418 104.578 265.203 105.101V105.151H265.172C264.968 105.66 264.662 106.122 264.273 106.509C263.887 106.893 263.435 107.204 262.939 107.428H262.954C262.421 107.632 261.854 107.736 261.282 107.731V107.7C260.715 107.706 259.599 107.428 259.599 107.428H259.586C259.09 107.177 258.632 106.858 258.224 106.479H258.272C257.902 106.079 257.595 105.626 257.361 105.134C257.176 104.615 257.082 104.067 257.082 103.516C257.072 102.965 257.188 102.419 257.424 101.921C257.607 101.425 257.899 100.977 258.278 100.607C258.659 100.225 259.116 99.9263 259.619 99.7298C260.132 99.5019 261.251 99.4016 261.251 99.4016H265.519L265.526 103.453Z" fill="#332FFC"/>
<path d="M186.643 100.49C186.271 99.5716 185.713 98.7405 185.004 98.0484C184.3 97.3388 183.464 96.7743 182.543 96.3869C181.608 95.9706 180.594 95.7592 179.57 95.7669C178.544 95.7655 177.53 95.9766 176.59 96.3869C175.671 96.7731 174.837 97.3361 174.136 98.0439C173.441 98.7489 172.885 99.5786 172.497 100.49C172.086 101.375 171.883 102.336 171.864 103.462V111.287H175.598V103.604C175.594 103.055 175.697 102.51 175.902 102.001C176.116 101.511 176.416 101.063 176.787 100.679C177.162 100.295 177.609 99.9897 178.103 99.7807H178.109C178.618 99.5589 179.168 99.4444 179.723 99.4444C180.278 99.4444 180.827 99.5589 181.336 99.7807H181.343C181.836 99.9776 182.281 100.28 182.645 100.667H182.546C182.915 101.031 183.2 101.472 183.382 101.958V101.971C183.597 102.465 183.704 102.998 183.698 103.537V111.286H187.298V103.491C187.298 103.491 187.054 101.41 186.643 100.49Z" fill="#332FFC"/>
<defs>
<filter id="filter0_d_98_13258" x="62.3518" y="59.6783" width="46.6674" height="29.9596" filterUnits="userSpaceOnUse" color-interpolation-filters="sRGB">
<feFlood flood-opacity="0" result="BackgroundImageFix"/>
<feColorMatrix in="SourceAlpha" type="matrix" values="0 0 0 0 0 0 0 0 0 0 0 0 0 0 0 0 0 0 127 0" result="hardAlpha"/>
<feOffset dy="2.72727"/>
<feGaussianBlur stdDeviation="1.36364"/>
<feComposite in2="hardAlpha" operator="out"/>
<feColorMatrix type="matrix" values="0 0 0 0 0.129412 0 0 0 0 0.129412 0 0 0 0 0.129412 0 0 0 0.25 0"/>
<feBlend mode="normal" in2="BackgroundImageFix" result="effect1_dropShadow_98_13258"/>
<feBlend mode="normal" in="SourceGraphic" in2="effect1_dropShadow_98_13258" result="shape"/>
</filter>
</defs>
</svg>
