<svg width="497" height="160" viewBox="0 0 497 160" fill="none" xmlns="http://www.w3.org/2000/svg">
<rect y="0.287109" width="496.346" height="159.287" rx="24" fill="#E6E6E6"/>
<path fill-rule="evenodd" clip-rule="evenodd" d="M57.3957 40.2871C63.1947 40.2871 68.0541 44.4453 72.2795 48.417C75.7341 51.6642 80.3847 53.6534 85.5 53.6534C90.6153 53.6534 95.2659 51.6642 98.7205 48.417C102.946 44.4453 107.805 40.2871 113.604 40.2871H114.089C119.01 40.2871 123 44.2735 123 49.1949V100.409C123 106.575 118.678 111.574 113.347 111.574H57.6535C52.322 111.574 48 106.575 48 100.409V49.1949C48 44.2735 51.9895 40.2871 56.9109 40.2871H57.3957ZM74.7327 64.7921V59.9653H65.0792V64.7921C65.0792 75.9315 74.5849 84.4703 85.6856 84.4703C96.7864 84.4703 106.292 75.9315 106.292 64.7921V59.9653H96.6386V64.7921C96.6386 70.0571 92.0147 74.8168 85.6856 74.8168C79.3566 74.8168 74.7327 70.0571 74.7327 64.7921Z" fill="#6B6B6B"/>
<g filter="url(#filter0_d_98_13228)">
<path d="M74.7326 64.7922V59.9655H65.0791V64.7922C65.0791 75.9317 74.5848 84.4704 85.6855 84.4704C96.7863 84.4704 106.292 75.9317 106.292 64.7922V59.9655H96.6385V64.7922C96.6385 70.0572 92.0145 74.8169 85.6855 74.8169C79.3565 74.8169 74.7326 70.0572 74.7326 64.7922Z" fill="white"/>
</g>
<path d="M142.276 43.2221C142.761 43.2221 143.264 43.3608 143.784 43.6381C144.339 43.8808 144.755 44.2101 145.032 44.6261L157.668 64.0741L155.068 63.9701L168.016 44.6261C168.675 43.6901 169.524 43.2221 170.564 43.2221C171.396 43.2221 172.141 43.5168 172.8 44.1061C173.459 44.6954 173.788 45.4581 173.788 46.3941V76.5021C173.788 77.4034 173.493 78.1661 172.904 78.7901C172.315 79.3794 171.535 79.6741 170.564 79.6741C169.593 79.6741 168.796 79.3794 168.172 78.7901C167.583 78.1661 167.288 77.4034 167.288 76.5021V52.0101L169.316 52.4781L158.708 68.6501C158.396 69.0314 157.997 69.3608 157.512 69.6381C157.061 69.9154 156.593 70.0368 156.108 70.0021C155.657 70.0368 155.189 69.9154 154.704 69.6381C154.253 69.3608 153.872 69.0314 153.56 68.6501L143.628 52.9461L144.98 50.1901V76.5021C144.98 77.4034 144.703 78.1661 144.148 78.7901C143.593 79.3794 142.865 79.6741 141.964 79.6741C141.097 79.6741 140.387 79.3794 139.832 78.7901C139.277 78.1661 139 77.4034 139 76.5021V46.3941C139 45.5274 139.312 44.7821 139.936 44.1581C140.595 43.5341 141.375 43.2221 142.276 43.2221Z" fill="#6B6B6B"/>
<path d="M203.861 51.3341C204.763 51.3341 205.508 51.6288 206.097 52.2181C206.687 52.8074 206.981 53.5701 206.981 54.5061V76.5021C206.981 77.4034 206.687 78.1661 206.097 78.7901C205.508 79.3794 204.763 79.6741 203.861 79.6741C202.96 79.6741 202.215 79.3794 201.625 78.7901C201.036 78.1661 200.741 77.4034 200.741 76.5021V73.9541L201.885 74.4221C201.885 74.8728 201.643 75.4274 201.157 76.0861C200.672 76.7101 200.013 77.3341 199.181 77.9581C198.349 78.5821 197.361 79.1194 196.217 79.5701C195.108 79.9861 193.895 80.1941 192.577 80.1941C190.185 80.1941 188.019 79.5874 186.077 78.3741C184.136 77.1261 182.593 75.4274 181.449 73.2781C180.34 71.0941 179.785 68.5981 179.785 65.7901C179.785 62.9474 180.34 60.4514 181.449 58.3021C182.593 56.1181 184.119 54.4194 186.025 53.2061C187.932 51.9581 190.047 51.3341 192.369 51.3341C193.86 51.3341 195.229 51.5594 196.477 52.0101C197.725 52.4608 198.8 53.0328 199.701 53.7261C200.637 54.4194 201.348 55.1301 201.833 55.8581C202.353 56.5514 202.613 57.1408 202.613 57.6261L200.741 58.3021V54.5061C200.741 53.6048 201.036 52.8594 201.625 52.2701C202.215 51.6461 202.96 51.3341 203.861 51.3341ZM193.357 74.4741C194.883 74.4741 196.217 74.0928 197.361 73.3301C198.505 72.5674 199.389 71.5274 200.013 70.2101C200.672 68.8928 201.001 67.4194 201.001 65.7901C201.001 64.1261 200.672 62.6354 200.013 61.3181C199.389 60.0008 198.505 58.9608 197.361 58.1981C196.217 57.4354 194.883 57.0541 193.357 57.0541C191.867 57.0541 190.549 57.4354 189.405 58.1981C188.261 58.9608 187.36 60.0008 186.701 61.3181C186.077 62.6354 185.765 64.1261 185.765 65.7901C185.765 67.4194 186.077 68.8928 186.701 70.2101C187.36 71.5274 188.261 72.5674 189.405 73.3301C190.549 74.0928 191.867 74.4741 193.357 74.4741Z" fill="#6B6B6B"/>
<path d="M216.858 79.6741C215.956 79.6741 215.211 79.3794 214.622 78.7901C214.032 78.1661 213.738 77.4034 213.738 76.5021V55.0261C213.738 54.1248 214.032 53.3794 214.622 52.7901C215.211 52.1661 215.956 51.8541 216.858 51.8541C217.759 51.8541 218.504 52.1661 219.094 52.7901C219.683 53.3794 219.978 54.1248 219.978 55.0261V59.9141L219.614 56.4301C219.995 55.5981 220.48 54.8701 221.07 54.2461C221.694 53.5874 222.387 53.0501 223.15 52.6341C223.912 52.1834 224.727 51.8541 225.594 51.6461C226.46 51.4381 227.327 51.3341 228.194 51.3341C229.234 51.3341 230.1 51.6288 230.794 52.2181C231.522 52.8074 231.886 53.5008 231.886 54.2981C231.886 55.4421 231.591 56.2741 231.002 56.7941C230.412 57.2794 229.771 57.5221 229.078 57.5221C228.419 57.5221 227.812 57.4008 227.258 57.1581C226.738 56.9154 226.131 56.7941 225.438 56.7941C224.814 56.7941 224.172 56.9501 223.514 57.2621C222.89 57.5394 222.3 57.9901 221.746 58.6141C221.226 59.2381 220.792 60.0181 220.446 60.9541C220.134 61.8554 219.978 62.9301 219.978 64.1781V76.5021C219.978 77.4034 219.683 78.1661 219.094 78.7901C218.504 79.3794 217.759 79.6741 216.858 79.6741Z" fill="#6B6B6B"/>
<path d="M239.925 79.6741C239.023 79.6741 238.278 79.3794 237.689 78.7901C237.099 78.1661 236.805 77.4034 236.805 76.5021V44.3661C236.805 43.4648 237.099 42.7194 237.689 42.1301C238.278 41.5061 239.023 41.1941 239.925 41.1941C240.826 41.1941 241.571 41.5061 242.161 42.1301C242.75 42.7194 243.045 43.4648 243.045 44.3661V76.5021C243.045 77.4034 242.75 78.1661 242.161 78.7901C241.571 79.3794 240.826 79.6741 239.925 79.6741ZM256.461 51.8541C257.258 51.8541 257.951 52.1834 258.541 52.8421C259.13 53.5008 259.425 54.1421 259.425 54.7661C259.425 55.5981 259.009 56.3781 258.177 57.1061L242.525 71.5101L242.265 64.3341L254.173 52.8421C254.831 52.1834 255.594 51.8541 256.461 51.8541ZM257.241 79.6221C256.339 79.6221 255.577 79.2754 254.953 78.5821L245.333 68.3901L250.065 64.0221L259.425 74.2141C260.083 74.9074 260.413 75.6874 260.413 76.5541C260.413 77.4554 260.049 78.2008 259.321 78.7901C258.627 79.3448 257.934 79.6221 257.241 79.6221Z" fill="#6B6B6B"/>
<path d="M277.826 80.1941C274.88 80.1941 272.314 79.5874 270.13 78.3741C267.981 77.1261 266.317 75.4448 265.138 73.3301C263.994 71.2154 263.422 68.8234 263.422 66.1541C263.422 63.0341 264.046 60.3821 265.294 58.1981C266.577 55.9794 268.241 54.2808 270.286 53.1021C272.332 51.9234 274.498 51.3341 276.786 51.3341C278.554 51.3341 280.218 51.6981 281.778 52.4261C283.373 53.1541 284.777 54.1594 285.99 55.4421C287.204 56.6901 288.157 58.1461 288.85 59.8101C289.578 61.4741 289.942 63.2421 289.942 65.1141C289.908 65.9461 289.578 66.6221 288.954 67.1421C288.33 67.6621 287.602 67.9221 286.77 67.9221H266.906L265.346 62.7221H284.43L283.286 63.7621V62.3581C283.217 61.3528 282.853 60.4514 282.194 59.6541C281.57 58.8568 280.773 58.2328 279.802 57.7821C278.866 57.2968 277.861 57.0541 276.786 57.0541C275.746 57.0541 274.776 57.1928 273.874 57.4701C272.973 57.7474 272.193 58.2154 271.534 58.8741C270.876 59.5328 270.356 60.4168 269.974 61.5261C269.593 62.6354 269.402 64.0394 269.402 65.7381C269.402 67.6101 269.784 69.2048 270.546 70.5221C271.344 71.8048 272.349 72.7928 273.562 73.4861C274.81 74.1448 276.128 74.4741 277.514 74.4741C278.797 74.4741 279.82 74.3701 280.582 74.1621C281.345 73.9541 281.952 73.7114 282.402 73.4341C282.888 73.1221 283.321 72.8621 283.702 72.6541C284.326 72.3421 284.916 72.1861 285.47 72.1861C286.233 72.1861 286.857 72.4461 287.342 72.9661C287.862 73.4861 288.122 74.0928 288.122 74.7861C288.122 75.7221 287.637 76.5714 286.666 77.3341C285.765 78.0968 284.5 78.7728 282.87 79.3621C281.241 79.9168 279.56 80.1941 277.826 80.1941Z" fill="#6B6B6B"/>
<path d="M295.706 52.3741H308.03C308.862 52.3741 309.555 52.6514 310.11 53.2061C310.665 53.7608 310.942 54.4541 310.942 55.2861C310.942 56.0834 310.665 56.7594 310.11 57.3141C309.555 57.8341 308.862 58.0941 308.03 58.0941H295.706C294.874 58.0941 294.181 57.8168 293.626 57.2621C293.071 56.7074 292.794 56.0141 292.794 55.1821C292.794 54.3848 293.071 53.7261 293.626 53.2061C294.181 52.6514 294.874 52.3741 295.706 52.3741ZM301.27 45.8741C302.171 45.8741 302.899 46.1861 303.454 46.8101C304.043 47.3994 304.338 48.1448 304.338 49.0461V72.1861C304.338 72.6714 304.425 73.0701 304.598 73.3821C304.806 73.6941 305.066 73.9194 305.378 74.0581C305.725 74.1968 306.089 74.2661 306.47 74.2661C306.886 74.2661 307.267 74.1968 307.614 74.0581C307.961 73.8848 308.359 73.7981 308.81 73.7981C309.295 73.7981 309.729 74.0234 310.11 74.4741C310.526 74.9248 310.734 75.5488 310.734 76.3461C310.734 77.3168 310.197 78.1141 309.122 78.7381C308.082 79.3621 306.955 79.6741 305.742 79.6741C305.014 79.6741 304.199 79.6221 303.298 79.5181C302.431 79.3794 301.599 79.0848 300.802 78.6341C300.039 78.1488 299.398 77.4208 298.878 76.4501C298.358 75.4794 298.098 74.1448 298.098 72.4461V49.0461C298.098 48.1448 298.393 47.3994 298.982 46.8101C299.606 46.1861 300.369 45.8741 301.27 45.8741Z" fill="#6B6B6B"/>
<path d="M336.29 52.8941C338.647 52.8941 340.727 53.4834 342.53 54.6621C344.367 55.8061 345.823 57.4008 346.898 59.4461C347.972 61.4568 348.51 63.7794 348.51 66.4141C348.51 69.0488 347.972 71.3888 346.898 73.4341C345.823 75.4794 344.367 77.0914 342.53 78.2701C340.692 79.4488 338.63 80.0381 336.342 80.0381C335.128 80.0381 333.967 79.8648 332.858 79.5181C331.783 79.1368 330.795 78.6341 329.894 78.0101C328.992 77.3861 328.195 76.6581 327.502 75.8261C326.808 74.9594 326.254 74.0234 325.838 73.0181L326.774 72.3421V88.5141C326.774 88.9301 326.618 89.2941 326.306 89.6061C326.028 89.9181 325.664 90.0741 325.214 90.0741C324.763 90.0741 324.382 89.9181 324.07 89.6061C323.792 89.2941 323.654 88.9301 323.654 88.5141V54.6101C323.654 54.1594 323.792 53.7781 324.07 53.4661C324.347 53.1541 324.728 52.9981 325.214 52.9981C325.664 52.9981 326.028 53.1541 326.306 53.4661C326.618 53.7781 326.774 54.1594 326.774 54.6101V60.2261L326.046 59.8101C326.392 58.7354 326.895 57.7821 327.554 56.9501C328.247 56.0834 329.044 55.3554 329.946 54.7661C330.847 54.1421 331.835 53.6741 332.91 53.3621C333.984 53.0501 335.111 52.8941 336.29 52.8941ZM336.03 55.8061C334.158 55.8061 332.511 56.2741 331.09 57.2101C329.668 58.1114 328.542 59.3594 327.71 60.9541C326.912 62.5141 326.514 64.3341 326.514 66.4141C326.514 68.4594 326.912 70.2968 327.71 71.9261C328.542 73.5554 329.668 74.8381 331.09 75.7741C332.511 76.6754 334.158 77.1261 336.03 77.1261C337.867 77.1261 339.479 76.6754 340.866 75.7741C342.287 74.8381 343.414 73.5554 344.246 71.9261C345.078 70.2968 345.494 68.4594 345.494 66.4141C345.494 64.3688 345.078 62.5488 344.246 60.9541C343.414 59.3594 342.287 58.1114 340.866 57.2101C339.479 56.2741 337.867 55.8061 336.03 55.8061Z" fill="#6B6B6B"/>
<path d="M358.621 78.1141C358.621 78.5301 358.465 78.8941 358.153 79.2061C357.841 79.5181 357.477 79.6741 357.061 79.6741C356.61 79.6741 356.229 79.5181 355.917 79.2061C355.639 78.8941 355.501 78.5301 355.501 78.1141V42.7541C355.501 42.3381 355.657 41.9741 355.969 41.6621C356.281 41.3501 356.645 41.1941 357.061 41.1941C357.511 41.1941 357.875 41.3501 358.153 41.6621C358.465 41.9741 358.621 42.3381 358.621 42.7541V78.1141Z" fill="#6B6B6B"/>
<path d="M388.961 53.1021C389.412 53.1021 389.776 53.2581 390.053 53.5701C390.365 53.8821 390.521 54.2634 390.521 54.7141V78.1141C390.521 78.5301 390.365 78.8941 390.053 79.2061C389.741 79.5181 389.377 79.6741 388.961 79.6741C388.51 79.6741 388.129 79.5181 387.817 79.2061C387.54 78.8941 387.401 78.5301 387.401 78.1141V71.9261L388.285 71.5101C388.285 72.4808 388.008 73.4688 387.453 74.4741C386.933 75.4794 386.205 76.4154 385.269 77.2821C384.333 78.1488 383.224 78.8594 381.941 79.4141C380.693 79.9341 379.341 80.1941 377.885 80.1941C375.528 80.1941 373.413 79.5874 371.541 78.3741C369.704 77.1608 368.248 75.4968 367.173 73.3821C366.133 71.2674 365.613 68.8928 365.613 66.2581C365.613 63.5541 366.15 61.1794 367.225 59.1341C368.3 57.0541 369.756 55.4248 371.593 54.2461C373.43 53.0674 375.51 52.4781 377.833 52.4781C379.324 52.4781 380.71 52.7381 381.993 53.2581C383.31 53.7781 384.454 54.4888 385.425 55.3901C386.396 56.2914 387.141 57.3314 387.661 58.5101C388.216 59.6541 388.493 60.8501 388.493 62.0981L387.401 61.3181V54.7141C387.401 54.2634 387.54 53.8821 387.817 53.5701C388.129 53.2581 388.51 53.1021 388.961 53.1021ZM378.145 77.2821C379.982 77.2821 381.612 76.8141 383.033 75.8781C384.454 74.9074 385.564 73.5901 386.361 71.9261C387.193 70.2274 387.609 68.3381 387.609 66.2581C387.609 64.2128 387.193 62.3754 386.361 60.7461C385.564 59.1168 384.454 57.8168 383.033 56.8461C381.612 55.8754 379.982 55.3901 378.145 55.3901C376.342 55.3901 374.713 55.8581 373.257 56.7941C371.836 57.7301 370.709 59.0128 369.877 60.6421C369.08 62.2714 368.681 64.1434 368.681 66.2581C368.681 68.3381 369.08 70.2274 369.877 71.9261C370.709 73.5901 371.836 74.9074 373.257 75.8781C374.678 76.8141 376.308 77.2821 378.145 77.2821Z" fill="#6B6B6B"/>
<path d="M410.408 52.4781C412.072 52.4781 413.598 52.6688 414.984 53.0501C416.371 53.3968 417.48 53.8821 418.312 54.5061C419.179 55.1301 419.612 55.8061 419.612 56.5341C419.612 56.8808 419.491 57.2274 419.248 57.5741C419.006 57.8861 418.676 58.0421 418.26 58.0421C417.844 58.0421 417.498 57.9381 417.22 57.7301C416.978 57.5221 416.718 57.2794 416.44 57.0021C416.198 56.7248 415.834 56.4648 415.348 56.2221C414.898 56.0141 414.256 55.8234 413.424 55.6501C412.592 55.4768 411.639 55.3901 410.564 55.3901C408.623 55.3901 406.872 55.8754 405.312 56.8461C403.752 57.8168 402.522 59.1341 401.62 60.7981C400.719 62.4274 400.268 64.2648 400.268 66.3101C400.268 68.3901 400.702 70.2621 401.568 71.9261C402.435 73.5901 403.631 74.9074 405.156 75.8781C406.682 76.8141 408.467 77.2821 410.512 77.2821C411.899 77.2821 412.974 77.1608 413.736 76.9181C414.499 76.6754 415.158 76.3981 415.712 76.0861C416.371 75.7048 416.839 75.3408 417.116 74.9941C417.428 74.6128 417.827 74.4221 418.312 74.4221C418.763 74.4221 419.092 74.5608 419.3 74.8381C419.543 75.0808 419.664 75.4101 419.664 75.8261C419.664 76.3808 419.248 77.0048 418.416 77.6981C417.619 78.3568 416.51 78.9461 415.088 79.4661C413.667 79.9514 412.038 80.1941 410.2 80.1941C407.6 80.1941 405.312 79.5874 403.336 78.3741C401.395 77.1608 399.87 75.5141 398.76 73.4341C397.686 71.3194 397.148 68.9448 397.148 66.3101C397.148 63.7794 397.703 61.4741 398.812 59.3941C399.922 57.3141 401.464 55.6501 403.44 54.4021C405.451 53.1194 407.774 52.4781 410.408 52.4781Z" fill="#6B6B6B"/>
<path d="M437.634 80.1941C434.965 80.1941 432.608 79.6221 430.562 78.4781C428.517 77.3341 426.922 75.7394 425.778 73.6941C424.634 71.6488 424.062 69.2568 424.062 66.5181C424.062 63.5714 424.634 61.0581 425.778 58.9781C426.957 56.8981 428.465 55.3034 430.302 54.1941C432.174 53.0501 434.15 52.4781 436.23 52.4781C437.756 52.4781 439.229 52.7554 440.65 53.3101C442.106 53.8301 443.389 54.6274 444.498 55.7021C445.642 56.7421 446.544 58.0248 447.202 59.5501C447.896 61.0754 448.277 62.8434 448.346 64.8541C448.312 65.2701 448.138 65.6341 447.826 65.9461C447.514 66.2234 447.15 66.3621 446.734 66.3621H425.882L425.258 63.5541H445.746L445.07 64.1781V63.1381C444.932 61.5088 444.412 60.1221 443.51 58.9781C442.609 57.8341 441.517 56.9674 440.234 56.3781C438.952 55.7888 437.617 55.4941 436.23 55.4941C435.19 55.4941 434.116 55.7021 433.006 56.1181C431.932 56.5341 430.944 57.1928 430.042 58.0941C429.176 58.9608 428.465 60.0874 427.91 61.4741C427.356 62.8261 427.078 64.4381 427.078 66.3101C427.078 68.3554 427.494 70.2101 428.326 71.8741C429.158 73.5381 430.354 74.8554 431.914 75.8261C433.509 76.7968 435.398 77.2821 437.582 77.2821C438.796 77.2821 439.888 77.1088 440.858 76.7621C441.829 76.4154 442.678 75.9648 443.406 75.4101C444.134 74.8208 444.741 74.2141 445.226 73.5901C445.608 73.2781 445.989 73.1221 446.37 73.1221C446.717 73.1221 447.012 73.2608 447.254 73.5381C447.532 73.8154 447.67 74.1274 447.67 74.4741C447.67 74.8901 447.497 75.2541 447.15 75.5661C446.11 76.8141 444.758 77.9061 443.094 78.8421C441.43 79.7434 439.61 80.1941 437.634 80.1941Z" fill="#6B6B6B"/>
<path d="M149.621 106.703H149.626C149.254 107.103 148.798 107.416 148.29 107.62C147.785 107.822 147.245 107.925 146.701 107.924C145.549 107.924 144.6 107.525 143.77 106.703C143.376 106.313 143.066 105.848 142.858 105.335C142.658 104.838 142.553 104.308 142.548 103.772C142.553 103.24 142.658 102.714 142.858 102.221C143.061 101.716 143.37 101.26 143.764 100.884H143.778C144.157 100.5 144.608 100.195 145.105 99.9854C145.602 99.7759 146.136 99.6664 146.675 99.6633C147.214 99.6602 147.749 99.7635 148.249 99.9673C148.748 100.171 149.202 100.471 149.586 100.851L149.62 100.884L150.919 102.133L153.417 99.5853L152.162 98.3302C151.433 97.5868 150.552 97.0101 149.579 96.6398C148.668 96.2583 147.69 96.061 146.702 96.0593C145.7 96.0639 144.708 96.2631 143.782 96.6459C142.825 97.0255 141.956 97.6001 141.233 98.3332C140.5 99.0557 139.926 99.9237 139.549 100.881C138.817 102.744 138.817 104.815 139.549 106.678C139.927 107.637 140.501 108.507 141.233 109.233C141.959 109.965 142.823 110.546 143.775 110.943H143.816C144.741 111.304 145.724 111.491 146.716 111.495C147.692 111.481 148.66 111.316 149.585 111.006C150.551 110.554 151.424 109.976 152.152 109.236L153.401 107.987L150.909 105.457L149.621 106.703Z" fill="#6B6B6B"/>
<path d="M166.001 105.689L164.983 106.707C164.319 107.364 163.573 107.756 162.694 107.902C162.494 107.927 162.294 107.94 162.093 107.94C161.616 107.945 161.142 107.861 160.695 107.693L168.789 99.599L167.531 98.334C166.795 97.5939 165.911 97.0167 164.938 96.6398C164.017 96.2546 163.029 96.0568 162.032 96.0579C161.034 96.0589 160.046 96.2588 159.127 96.6458C158.169 97.03 157.3 97.604 156.571 98.3333C155.841 99.0625 155.267 99.9319 154.883 100.889C154.519 101.808 154.332 102.788 154.333 103.776C154.332 104.775 154.517 105.765 154.876 106.697V106.71C155.258 107.669 155.833 108.539 156.565 109.265C158.009 110.718 159.97 111.537 162.018 111.543C164.066 111.549 166.032 110.742 167.484 109.299L167.522 109.267L168.787 108.003L166.238 105.447L166.001 105.689ZM157.881 103.797C157.888 102.646 158.286 101.697 159.102 100.875C159.766 100.217 160.499 99.8383 161.353 99.7183C161.561 99.6874 161.77 99.6724 161.979 99.6734C162.458 99.6695 162.934 99.7532 163.383 99.9203C163.124 100.179 162.801 100.489 162.422 100.85L160.675 102.598L158.962 104.305L158.126 105.147C157.968 104.713 157.887 104.255 157.886 103.793L157.881 103.797ZM166.194 105.93L165.979 105.715L166.194 105.924V105.93Z" fill="#6B6B6B"/>
<path d="M198.252 105.473L196.949 106.731C196.577 107.129 196.121 107.44 195.615 107.642C195.11 107.844 194.572 107.947 194.028 107.946C192.877 107.94 191.922 107.547 191.1 106.725C190.703 106.336 190.39 105.869 190.183 105.353C189.777 104.355 189.777 103.237 190.183 102.238C190.385 101.734 190.697 101.28 191.095 100.91C191.669 100.334 192.401 99.9403 193.198 99.7781C193.996 99.616 194.823 99.6927 195.577 99.9986C196.092 100.206 196.559 100.516 196.949 100.91L198.246 102.168L200.763 99.6135L199.506 98.3583C198.771 97.6164 197.888 97.0387 196.914 96.6634C195.999 96.2824 195.018 96.0849 194.027 96.0822C193.024 96.086 192.031 96.2857 191.105 96.6702C190.145 97.0495 189.275 97.6244 188.55 98.3583C187.815 99.0828 187.24 99.9532 186.861 100.913C186.128 102.781 186.128 104.857 186.861 106.725C187.24 107.685 187.813 108.557 188.545 109.286C189.273 110.022 190.139 110.606 191.094 111.006H191.1C192.032 111.368 193.022 111.554 194.022 111.556C195.013 111.555 195.995 111.368 196.918 111.006C197.889 110.615 198.769 110.029 199.506 109.286L200.765 108.028L198.252 105.473Z" fill="#6B6B6B"/>
<path d="M217.259 103.757C217.265 102.725 216.682 100.755 216.682 100.755C216.304 99.8338 215.739 99.0015 215.023 98.3105C214.313 97.5955 213.467 97.0312 212.534 96.6512C211.586 96.2335 210.561 96.022 209.525 96.0305C208.49 96.0263 207.465 96.2377 206.516 96.6512H206.501C205.564 97.0341 204.714 97.6003 203.999 98.3166C203.293 99.0278 202.726 99.8654 202.328 100.786C201.958 101.654 201.767 102.586 201.741 103.673H201.8V103.926H201.807C201.832 104.994 202.015 105.905 202.369 106.765C202.369 106.765 203.313 108.526 204.003 109.242H204.009C204.715 109.957 205.557 110.523 206.486 110.907C207.432 111.323 208.455 111.532 209.488 111.522C210.526 111.539 211.555 111.329 212.503 110.907C213.432 110.526 214.277 109.963 214.987 109.252C215.697 108.541 216.259 107.695 216.639 106.765C217.055 105.817 217.266 104.792 217.259 103.757ZM213.246 105.309C213.082 105.809 212.795 106.261 212.41 106.621C212.033 106.987 211.59 107.279 211.104 107.481C210.064 107.883 208.913 107.883 207.873 107.481C207.376 107.288 206.924 106.996 206.543 106.622C206.162 106.249 205.862 105.802 205.659 105.309C205.464 104.841 205.361 104.341 205.355 103.835C205.355 103.414 205.456 102.652 205.659 102.175C205.868 101.696 206.168 101.261 206.542 100.894C206.922 100.518 207.375 100.223 207.873 100.028V100.002H207.879C208.912 99.6006 210.058 99.6006 211.091 100.002H211.104C211.587 100.212 212.026 100.512 212.395 100.888H212.408C212.792 101.25 213.098 101.686 213.31 102.169V102.182C213.516 102.668 213.622 103.19 213.619 103.718C213.625 104.263 213.513 104.804 213.291 105.302L213.246 105.309Z" fill="#6B6B6B"/>
<path d="M233.763 106.855C233.763 106.224 233.632 105.601 233.378 105.024C233.371 105.018 233.397 105.012 233.397 105.012C233.149 104.449 232.794 103.939 232.352 103.512C231.924 103.084 231.41 102.752 230.845 102.536L230.832 102.524C230.256 102.264 229.001 102.093 229.001 102.093H223.181C223.034 102.098 222.887 102.073 222.75 102.018C222.612 101.964 222.488 101.882 222.384 101.777C222.171 101.551 222.053 101.252 222.055 100.942C222.049 100.649 222.16 100.366 222.362 100.155C222.564 99.9431 222.841 99.8202 223.134 99.8126H232.403V96.2084H223.269C223.269 96.2084 221.992 96.3178 221.404 96.5761C220.852 96.8052 220.352 97.1408 219.93 97.5638C219.501 98.0119 219.144 98.5247 218.874 99.0833V99.1083C218.644 99.6886 218.529 100.308 218.533 100.932C218.533 101.568 218.874 102.791 218.874 102.791V102.784H218.88C219.129 103.338 219.475 103.843 219.9 104.276C220.313 104.706 220.802 105.053 221.344 105.3V105.313H221.35C221.945 105.534 223.209 105.693 223.209 105.693H228.92C229.044 105.693 229.168 105.712 229.286 105.75L229.4 105.839C229.656 106.106 229.799 106.462 229.799 106.832C229.799 107.201 229.656 107.557 229.4 107.824L229.286 107.919C229.167 107.952 229.044 107.969 228.92 107.97H219.886V111.574H228.998C229.627 111.574 230.832 111.258 230.832 111.258H230.838C231.4 111.007 231.913 110.657 232.352 110.226C232.789 109.794 233.135 109.28 233.371 108.712C233.629 108.127 233.762 107.494 233.763 106.855Z" fill="#6B6B6B"/>
<path d="M250.316 96.2714H246.762V103.831C246.787 104.384 246.68 104.936 246.452 105.441H246.446V105.411C246.247 105.914 245.945 106.371 245.56 106.751C244.967 107.321 244.222 107.708 243.415 107.867C242.607 108.025 241.771 107.947 241.007 107.643C240.524 107.418 240.08 107.116 239.692 106.751C239.322 106.358 239.023 105.905 238.807 105.411C238.595 104.897 238.504 104.341 238.541 103.786V95.9553H235V103.709C235 103.709 235.158 105.76 235.569 106.706C235.948 107.623 236.498 108.46 237.189 109.172C237.883 109.886 238.718 110.446 239.642 110.816H239.649C240.584 111.241 241.6 111.457 242.627 111.449C243.645 111.455 245.606 110.88 245.606 110.88H245.587C246.504 110.475 247.337 109.905 248.047 109.198C248.751 108.486 249.31 107.644 249.691 106.719C250.102 105.773 250.311 104.752 250.305 103.721L250.316 96.2714Z" fill="#6B6B6B"/>
<path d="M266.998 90.0741H263.393V95.9553H259.298C258.274 95.9486 257.261 96.1572 256.323 96.5676C255.4 96.9466 254.56 97.5049 253.854 98.2102C253.145 98.9028 252.577 99.7264 252.183 100.635H252.134C252.084 100.755 252.039 100.875 251.995 100.996C251.575 102.209 251.451 103.505 251.634 104.776C251.723 105.463 251.906 106.134 252.179 106.77C252.877 108.437 254.18 109.778 255.826 110.525C255.933 110.576 256.041 110.639 256.154 110.69L256.053 110.943L256.161 110.69L256.287 110.753C258.082 111.481 260.081 111.53 261.91 110.892L261.935 110.937L261.916 110.892L262.276 110.753H262.283C263.197 110.36 264.027 109.792 264.724 109.081C265.433 108.374 265.996 107.534 266.38 106.608C266.793 105.67 267.004 104.654 267 103.629L266.998 90.0741ZM263.526 103.74C263.527 104.305 263.418 104.865 263.203 105.388V105.438H263.172C262.968 105.947 262.662 106.409 262.273 106.796C261.887 107.18 261.435 107.491 260.939 107.715H260.954C260.421 107.92 259.854 108.023 259.282 108.019V107.987C258.715 107.993 257.599 107.715 257.599 107.715H257.586C257.09 107.464 256.632 107.145 256.224 106.766H256.272C255.902 106.366 255.595 105.913 255.361 105.421C255.176 104.902 255.082 104.355 255.082 103.803C255.072 103.252 255.188 102.706 255.424 102.208C255.607 101.712 255.899 101.264 256.278 100.894C256.659 100.512 257.116 100.213 257.619 100.017C258.132 99.789 259.251 99.6887 259.251 99.6887H263.519L263.526 103.74Z" fill="#6B6B6B"/>
<path d="M184.643 100.777C184.271 99.8587 183.713 99.0276 183.004 98.3356C182.3 97.6259 181.464 97.0614 180.543 96.674C179.608 96.2577 178.594 96.0463 177.57 96.054C176.544 96.0526 175.53 96.2637 174.59 96.674C173.671 97.0602 172.837 97.6232 172.136 98.331C171.441 99.036 170.885 99.8657 170.497 100.777C170.086 101.662 169.883 102.623 169.864 103.749V111.574H173.598V103.892C173.594 103.342 173.697 102.797 173.902 102.288C174.116 101.798 174.416 101.35 174.787 100.967C175.162 100.582 175.609 100.277 176.103 100.068H176.109C176.618 99.846 177.168 99.7316 177.723 99.7316C178.278 99.7316 178.827 99.846 179.336 100.068H179.343C179.836 100.265 180.281 100.567 180.645 100.954H180.546C180.915 101.319 181.2 101.759 181.382 102.245V102.258C181.597 102.752 181.704 103.286 181.698 103.824V111.573H185.298V103.778C185.298 103.778 185.054 101.697 184.643 100.777Z" fill="#6B6B6B"/>
<defs>
<filter id="filter0_d_98_13228" x="62.3518" y="59.9655" width="46.6674" height="29.9596" filterUnits="userSpaceOnUse" color-interpolation-filters="sRGB">
<feFlood flood-opacity="0" result="BackgroundImageFix"/>
<feColorMatrix in="SourceAlpha" type="matrix" values="0 0 0 0 0 0 0 0 0 0 0 0 0 0 0 0 0 0 127 0" result="hardAlpha"/>
<feOffset dy="2.72727"/>
<feGaussianBlur stdDeviation="1.36364"/>
<feComposite in2="hardAlpha" operator="out"/>
<feColorMatrix type="matrix" values="0 0 0 0 0.129412 0 0 0 0 0.129412 0 0 0 0 0.129412 0 0 0 0.25 0"/>
<feBlend mode="normal" in2="BackgroundImageFix" result="effect1_dropShadow_98_13228"/>
<feBlend mode="normal" in="SourceGraphic" in2="effect1_dropShadow_98_13228" result="shape"/>
</filter>
</defs>
</svg>
