<svg width="497" height="160" viewBox="0 0 497 160" fill="none" xmlns="http://www.w3.org/2000/svg">
<rect y="0.574219" width="496.346" height="159.287" rx="24" fill="#332FFC"/>
<path fill-rule="evenodd" clip-rule="evenodd" d="M57.3957 40.5742C63.1947 40.5742 68.0541 44.7324 72.2795 48.7041C75.7341 51.9513 80.3847 53.9406 85.5 53.9406C90.6153 53.9406 95.2659 51.9513 98.7205 48.7041C102.946 44.7324 107.805 40.5742 113.604 40.5742H114.089C119.01 40.5742 123 44.5606 123 49.482V100.696C123 106.862 118.678 111.861 113.347 111.861H57.6535C52.322 111.861 48 106.862 48 100.696V49.482C48 44.5606 51.9895 40.5742 56.9109 40.5742H57.3957ZM74.7327 65.0792V60.2524H65.0792V65.0792C65.0792 76.2186 74.5849 84.7574 85.6856 84.7574C96.7864 84.7574 106.292 76.2186 106.292 65.0792V60.2524H96.6386V65.0792C96.6386 70.3442 92.0147 75.1039 85.6856 75.1039C79.3566 75.1039 74.7327 70.3442 74.7327 65.0792Z" fill="white"/>
<g filter="url(#filter0_d_98_13243)">
<path d="M74.7326 65.0793V60.2526H65.0791V65.0793C65.0791 76.2188 74.5848 84.7575 85.6855 84.7575C96.7863 84.7575 106.292 76.2188 106.292 65.0793V60.2526H96.6385V65.0793C96.6385 70.3443 92.0145 75.104 85.6855 75.104C79.3565 75.104 74.7326 70.3443 74.7326 65.0793Z" fill="#332FFC"/>
</g>
<path d="M142.276 43.5092C142.761 43.5092 143.264 43.6479 143.784 43.9252C144.339 44.1679 144.755 44.4972 145.032 44.9132L157.668 64.3612L155.068 64.2572L168.016 44.9132C168.675 43.9772 169.524 43.5092 170.564 43.5092C171.396 43.5092 172.141 43.8039 172.8 44.3932C173.459 44.9825 173.788 45.7452 173.788 46.6812V76.7892C173.788 77.6905 173.493 78.4532 172.904 79.0772C172.315 79.6665 171.535 79.9612 170.564 79.9612C169.593 79.9612 168.796 79.6665 168.172 79.0772C167.583 78.4532 167.288 77.6905 167.288 76.7892V52.2972L169.316 52.7652L158.708 68.9372C158.396 69.3185 157.997 69.6479 157.512 69.9252C157.061 70.2025 156.593 70.3239 156.108 70.2892C155.657 70.3239 155.189 70.2025 154.704 69.9252C154.253 69.6479 153.872 69.3185 153.56 68.9372L143.628 53.2332L144.98 50.4772V76.7892C144.98 77.6905 144.703 78.4532 144.148 79.0772C143.593 79.6665 142.865 79.9612 141.964 79.9612C141.097 79.9612 140.387 79.6665 139.832 79.0772C139.277 78.4532 139 77.6905 139 76.7892V46.6812C139 45.8145 139.312 45.0692 139.936 44.4452C140.595 43.8212 141.375 43.5092 142.276 43.5092Z" fill="white"/>
<path d="M203.861 51.6212C204.763 51.6212 205.508 51.9159 206.097 52.5052C206.687 53.0945 206.981 53.8572 206.981 54.7932V76.7892C206.981 77.6905 206.687 78.4532 206.097 79.0772C205.508 79.6665 204.763 79.9612 203.861 79.9612C202.96 79.9612 202.215 79.6665 201.625 79.0772C201.036 78.4532 200.741 77.6905 200.741 76.7892V74.2412L201.885 74.7092C201.885 75.1599 201.643 75.7145 201.157 76.3732C200.672 76.9972 200.013 77.6212 199.181 78.2452C198.349 78.8692 197.361 79.4065 196.217 79.8572C195.108 80.2732 193.895 80.4812 192.577 80.4812C190.185 80.4812 188.019 79.8745 186.077 78.6612C184.136 77.4132 182.593 75.7145 181.449 73.5652C180.34 71.3812 179.785 68.8852 179.785 66.0772C179.785 63.2345 180.34 60.7385 181.449 58.5892C182.593 56.4052 184.119 54.7065 186.025 53.4932C187.932 52.2452 190.047 51.6212 192.369 51.6212C193.86 51.6212 195.229 51.8465 196.477 52.2972C197.725 52.7479 198.8 53.3199 199.701 54.0132C200.637 54.7065 201.348 55.4172 201.833 56.1452C202.353 56.8385 202.613 57.4279 202.613 57.9132L200.741 58.5892V54.7932C200.741 53.8919 201.036 53.1465 201.625 52.5572C202.215 51.9332 202.96 51.6212 203.861 51.6212ZM193.357 74.7612C194.883 74.7612 196.217 74.3799 197.361 73.6172C198.505 72.8545 199.389 71.8145 200.013 70.4972C200.672 69.1799 201.001 67.7065 201.001 66.0772C201.001 64.4132 200.672 62.9225 200.013 61.6052C199.389 60.2879 198.505 59.2479 197.361 58.4852C196.217 57.7225 194.883 57.3412 193.357 57.3412C191.867 57.3412 190.549 57.7225 189.405 58.4852C188.261 59.2479 187.36 60.2879 186.701 61.6052C186.077 62.9225 185.765 64.4132 185.765 66.0772C185.765 67.7065 186.077 69.1799 186.701 70.4972C187.36 71.8145 188.261 72.8545 189.405 73.6172C190.549 74.3799 191.867 74.7612 193.357 74.7612Z" fill="white"/>
<path d="M216.858 79.9612C215.956 79.9612 215.211 79.6665 214.622 79.0772C214.032 78.4532 213.738 77.6905 213.738 76.7892V55.3132C213.738 54.4119 214.032 53.6665 214.622 53.0772C215.211 52.4532 215.956 52.1412 216.858 52.1412C217.759 52.1412 218.504 52.4532 219.094 53.0772C219.683 53.6665 219.978 54.4119 219.978 55.3132V60.2012L219.614 56.7172C219.995 55.8852 220.48 55.1572 221.07 54.5332C221.694 53.8745 222.387 53.3372 223.15 52.9212C223.912 52.4705 224.727 52.1412 225.594 51.9332C226.46 51.7252 227.327 51.6212 228.194 51.6212C229.234 51.6212 230.1 51.9159 230.794 52.5052C231.522 53.0945 231.886 53.7879 231.886 54.5852C231.886 55.7292 231.591 56.5612 231.002 57.0812C230.412 57.5665 229.771 57.8092 229.078 57.8092C228.419 57.8092 227.812 57.6879 227.258 57.4452C226.738 57.2025 226.131 57.0812 225.438 57.0812C224.814 57.0812 224.172 57.2372 223.514 57.5492C222.89 57.8265 222.3 58.2772 221.746 58.9012C221.226 59.5252 220.792 60.3052 220.446 61.2412C220.134 62.1425 219.978 63.2172 219.978 64.4652V76.7892C219.978 77.6905 219.683 78.4532 219.094 79.0772C218.504 79.6665 217.759 79.9612 216.858 79.9612Z" fill="white"/>
<path d="M239.925 79.9612C239.023 79.9612 238.278 79.6665 237.689 79.0772C237.099 78.4532 236.805 77.6905 236.805 76.7892V44.6532C236.805 43.7519 237.099 43.0065 237.689 42.4172C238.278 41.7932 239.023 41.4812 239.925 41.4812C240.826 41.4812 241.571 41.7932 242.161 42.4172C242.75 43.0065 243.045 43.7519 243.045 44.6532V76.7892C243.045 77.6905 242.75 78.4532 242.161 79.0772C241.571 79.6665 240.826 79.9612 239.925 79.9612ZM256.461 52.1412C257.258 52.1412 257.951 52.4705 258.541 53.1292C259.13 53.7879 259.425 54.4292 259.425 55.0532C259.425 55.8852 259.009 56.6652 258.177 57.3932L242.525 71.7972L242.265 64.6212L254.173 53.1292C254.831 52.4705 255.594 52.1412 256.461 52.1412ZM257.241 79.9092C256.339 79.9092 255.577 79.5625 254.953 78.8692L245.333 68.6772L250.065 64.3092L259.425 74.5012C260.083 75.1945 260.413 75.9745 260.413 76.8412C260.413 77.7425 260.049 78.4879 259.321 79.0772C258.627 79.6319 257.934 79.9092 257.241 79.9092Z" fill="white"/>
<path d="M277.826 80.4812C274.88 80.4812 272.314 79.8745 270.13 78.6612C267.981 77.4132 266.317 75.7319 265.138 73.6172C263.994 71.5025 263.422 69.1105 263.422 66.4412C263.422 63.3212 264.046 60.6692 265.294 58.4852C266.577 56.2665 268.241 54.5679 270.286 53.3892C272.332 52.2105 274.498 51.6212 276.786 51.6212C278.554 51.6212 280.218 51.9852 281.778 52.7132C283.373 53.4412 284.777 54.4465 285.99 55.7292C287.204 56.9772 288.157 58.4332 288.85 60.0972C289.578 61.7612 289.942 63.5292 289.942 65.4012C289.908 66.2332 289.578 66.9092 288.954 67.4292C288.33 67.9492 287.602 68.2092 286.77 68.2092H266.906L265.346 63.0092H284.43L283.286 64.0492V62.6452C283.217 61.6399 282.853 60.7385 282.194 59.9412C281.57 59.1439 280.773 58.5199 279.802 58.0692C278.866 57.5839 277.861 57.3412 276.786 57.3412C275.746 57.3412 274.776 57.4799 273.874 57.7572C272.973 58.0345 272.193 58.5025 271.534 59.1612C270.876 59.8199 270.356 60.7039 269.974 61.8132C269.593 62.9225 269.402 64.3265 269.402 66.0252C269.402 67.8972 269.784 69.4919 270.546 70.8092C271.344 72.0919 272.349 73.0799 273.562 73.7732C274.81 74.4319 276.128 74.7612 277.514 74.7612C278.797 74.7612 279.82 74.6572 280.582 74.4492C281.345 74.2412 281.952 73.9985 282.402 73.7212C282.888 73.4092 283.321 73.1492 283.702 72.9412C284.326 72.6292 284.916 72.4732 285.47 72.4732C286.233 72.4732 286.857 72.7332 287.342 73.2532C287.862 73.7732 288.122 74.3799 288.122 75.0732C288.122 76.0092 287.637 76.8585 286.666 77.6212C285.765 78.3839 284.5 79.0599 282.87 79.6492C281.241 80.2039 279.56 80.4812 277.826 80.4812Z" fill="white"/>
<path d="M295.706 52.6612H308.03C308.862 52.6612 309.555 52.9385 310.11 53.4932C310.665 54.0479 310.942 54.7412 310.942 55.5732C310.942 56.3705 310.665 57.0465 310.11 57.6012C309.555 58.1212 308.862 58.3812 308.03 58.3812H295.706C294.874 58.3812 294.181 58.1039 293.626 57.5492C293.071 56.9945 292.794 56.3012 292.794 55.4692C292.794 54.6719 293.071 54.0132 293.626 53.4932C294.181 52.9385 294.874 52.6612 295.706 52.6612ZM301.27 46.1612C302.171 46.1612 302.899 46.4732 303.454 47.0972C304.043 47.6865 304.338 48.4319 304.338 49.3332V72.4732C304.338 72.9585 304.425 73.3572 304.598 73.6692C304.806 73.9812 305.066 74.2065 305.378 74.3452C305.725 74.4839 306.089 74.5532 306.47 74.5532C306.886 74.5532 307.267 74.4839 307.614 74.3452C307.961 74.1719 308.359 74.0852 308.81 74.0852C309.295 74.0852 309.729 74.3105 310.11 74.7612C310.526 75.2119 310.734 75.8359 310.734 76.6332C310.734 77.6039 310.197 78.4012 309.122 79.0252C308.082 79.6492 306.955 79.9612 305.742 79.9612C305.014 79.9612 304.199 79.9092 303.298 79.8052C302.431 79.6665 301.599 79.3719 300.802 78.9212C300.039 78.4359 299.398 77.7079 298.878 76.7372C298.358 75.7665 298.098 74.4319 298.098 72.7332V49.3332C298.098 48.4319 298.393 47.6865 298.982 47.0972C299.606 46.4732 300.369 46.1612 301.27 46.1612Z" fill="white"/>
<path d="M336.29 53.1812C338.647 53.1812 340.727 53.7705 342.53 54.9492C344.367 56.0932 345.823 57.6879 346.898 59.7332C347.972 61.7439 348.51 64.0665 348.51 66.7012C348.51 69.3359 347.972 71.6759 346.898 73.7212C345.823 75.7665 344.367 77.3785 342.53 78.5572C340.692 79.7359 338.63 80.3252 336.342 80.3252C335.128 80.3252 333.967 80.1519 332.858 79.8052C331.783 79.4239 330.795 78.9212 329.894 78.2972C328.992 77.6732 328.195 76.9452 327.502 76.1132C326.808 75.2465 326.254 74.3105 325.838 73.3052L326.774 72.6292V88.8012C326.774 89.2172 326.618 89.5812 326.306 89.8932C326.028 90.2052 325.664 90.3612 325.214 90.3612C324.763 90.3612 324.382 90.2052 324.07 89.8932C323.792 89.5812 323.654 89.2172 323.654 88.8012V54.8972C323.654 54.4465 323.792 54.0652 324.07 53.7532C324.347 53.4412 324.728 53.2852 325.214 53.2852C325.664 53.2852 326.028 53.4412 326.306 53.7532C326.618 54.0652 326.774 54.4465 326.774 54.8972V60.5132L326.046 60.0972C326.392 59.0225 326.895 58.0692 327.554 57.2372C328.247 56.3705 329.044 55.6425 329.946 55.0532C330.847 54.4292 331.835 53.9612 332.91 53.6492C333.984 53.3372 335.111 53.1812 336.29 53.1812ZM336.03 56.0932C334.158 56.0932 332.511 56.5612 331.09 57.4972C329.668 58.3985 328.542 59.6465 327.71 61.2412C326.912 62.8012 326.514 64.6212 326.514 66.7012C326.514 68.7465 326.912 70.5839 327.71 72.2132C328.542 73.8425 329.668 75.1252 331.09 76.0612C332.511 76.9625 334.158 77.4132 336.03 77.4132C337.867 77.4132 339.479 76.9625 340.866 76.0612C342.287 75.1252 343.414 73.8425 344.246 72.2132C345.078 70.5839 345.494 68.7465 345.494 66.7012C345.494 64.6559 345.078 62.8359 344.246 61.2412C343.414 59.6465 342.287 58.3985 340.866 57.4972C339.479 56.5612 337.867 56.0932 336.03 56.0932Z" fill="white"/>
<path d="M358.621 78.4012C358.621 78.8172 358.465 79.1812 358.153 79.4932C357.841 79.8052 357.477 79.9612 357.061 79.9612C356.61 79.9612 356.229 79.8052 355.917 79.4932C355.639 79.1812 355.501 78.8172 355.501 78.4012V43.0412C355.501 42.6252 355.657 42.2612 355.969 41.9492C356.281 41.6372 356.645 41.4812 357.061 41.4812C357.511 41.4812 357.875 41.6372 358.153 41.9492C358.465 42.2612 358.621 42.6252 358.621 43.0412V78.4012Z" fill="white"/>
<path d="M388.961 53.3892C389.412 53.3892 389.776 53.5452 390.053 53.8572C390.365 54.1692 390.521 54.5505 390.521 55.0012V78.4012C390.521 78.8172 390.365 79.1812 390.053 79.4932C389.741 79.8052 389.377 79.9612 388.961 79.9612C388.51 79.9612 388.129 79.8052 387.817 79.4932C387.54 79.1812 387.401 78.8172 387.401 78.4012V72.2132L388.285 71.7972C388.285 72.7679 388.008 73.7559 387.453 74.7612C386.933 75.7665 386.205 76.7025 385.269 77.5692C384.333 78.4359 383.224 79.1465 381.941 79.7012C380.693 80.2212 379.341 80.4812 377.885 80.4812C375.528 80.4812 373.413 79.8745 371.541 78.6612C369.704 77.4479 368.248 75.7839 367.173 73.6692C366.133 71.5545 365.613 69.1799 365.613 66.5452C365.613 63.8412 366.15 61.4665 367.225 59.4212C368.3 57.3412 369.756 55.7119 371.593 54.5332C373.43 53.3545 375.51 52.7652 377.833 52.7652C379.324 52.7652 380.71 53.0252 381.993 53.5452C383.31 54.0652 384.454 54.7759 385.425 55.6772C386.396 56.5785 387.141 57.6185 387.661 58.7972C388.216 59.9412 388.493 61.1372 388.493 62.3852L387.401 61.6052V55.0012C387.401 54.5505 387.54 54.1692 387.817 53.8572C388.129 53.5452 388.51 53.3892 388.961 53.3892ZM378.145 77.5692C379.982 77.5692 381.612 77.1012 383.033 76.1652C384.454 75.1945 385.564 73.8772 386.361 72.2132C387.193 70.5145 387.609 68.6252 387.609 66.5452C387.609 64.4999 387.193 62.6625 386.361 61.0332C385.564 59.4039 384.454 58.1039 383.033 57.1332C381.612 56.1625 379.982 55.6772 378.145 55.6772C376.342 55.6772 374.713 56.1452 373.257 57.0812C371.836 58.0172 370.709 59.2999 369.877 60.9292C369.08 62.5585 368.681 64.4305 368.681 66.5452C368.681 68.6252 369.08 70.5145 369.877 72.2132C370.709 73.8772 371.836 75.1945 373.257 76.1652C374.678 77.1012 376.308 77.5692 378.145 77.5692Z" fill="white"/>
<path d="M410.408 52.7652C412.072 52.7652 413.598 52.9559 414.984 53.3372C416.371 53.6839 417.48 54.1692 418.312 54.7932C419.179 55.4172 419.612 56.0932 419.612 56.8212C419.612 57.1679 419.491 57.5145 419.248 57.8612C419.006 58.1732 418.676 58.3292 418.26 58.3292C417.844 58.3292 417.498 58.2252 417.22 58.0172C416.978 57.8092 416.718 57.5665 416.44 57.2892C416.198 57.0119 415.834 56.7519 415.348 56.5092C414.898 56.3012 414.256 56.1105 413.424 55.9372C412.592 55.7639 411.639 55.6772 410.564 55.6772C408.623 55.6772 406.872 56.1625 405.312 57.1332C403.752 58.1039 402.522 59.4212 401.62 61.0852C400.719 62.7145 400.268 64.5519 400.268 66.5972C400.268 68.6772 400.702 70.5492 401.568 72.2132C402.435 73.8772 403.631 75.1945 405.156 76.1652C406.682 77.1012 408.467 77.5692 410.512 77.5692C411.899 77.5692 412.974 77.4479 413.736 77.2052C414.499 76.9625 415.158 76.6852 415.712 76.3732C416.371 75.9919 416.839 75.6279 417.116 75.2812C417.428 74.8999 417.827 74.7092 418.312 74.7092C418.763 74.7092 419.092 74.8479 419.3 75.1252C419.543 75.3679 419.664 75.6972 419.664 76.1132C419.664 76.6679 419.248 77.2919 418.416 77.9852C417.619 78.6439 416.51 79.2332 415.088 79.7532C413.667 80.2385 412.038 80.4812 410.2 80.4812C407.6 80.4812 405.312 79.8745 403.336 78.6612C401.395 77.4479 399.87 75.8012 398.76 73.7212C397.686 71.6065 397.148 69.2319 397.148 66.5972C397.148 64.0665 397.703 61.7612 398.812 59.6812C399.922 57.6012 401.464 55.9372 403.44 54.6892C405.451 53.4065 407.774 52.7652 410.408 52.7652Z" fill="white"/>
<path d="M437.634 80.4812C434.965 80.4812 432.608 79.9092 430.562 78.7652C428.517 77.6212 426.922 76.0265 425.778 73.9812C424.634 71.9359 424.062 69.5439 424.062 66.8052C424.062 63.8585 424.634 61.3452 425.778 59.2652C426.957 57.1852 428.465 55.5905 430.302 54.4812C432.174 53.3372 434.15 52.7652 436.23 52.7652C437.756 52.7652 439.229 53.0425 440.65 53.5972C442.106 54.1172 443.389 54.9145 444.498 55.9892C445.642 57.0292 446.544 58.3119 447.202 59.8372C447.896 61.3625 448.277 63.1305 448.346 65.1412C448.312 65.5572 448.138 65.9212 447.826 66.2332C447.514 66.5105 447.15 66.6492 446.734 66.6492H425.882L425.258 63.8412H445.746L445.07 64.4652V63.4252C444.932 61.7959 444.412 60.4092 443.51 59.2652C442.609 58.1212 441.517 57.2545 440.234 56.6652C438.952 56.0759 437.617 55.7812 436.23 55.7812C435.19 55.7812 434.116 55.9892 433.006 56.4052C431.932 56.8212 430.944 57.4799 430.042 58.3812C429.176 59.2479 428.465 60.3745 427.91 61.7612C427.356 63.1132 427.078 64.7252 427.078 66.5972C427.078 68.6425 427.494 70.4972 428.326 72.1612C429.158 73.8252 430.354 75.1425 431.914 76.1132C433.509 77.0839 435.398 77.5692 437.582 77.5692C438.796 77.5692 439.888 77.3959 440.858 77.0492C441.829 76.7025 442.678 76.2519 443.406 75.6972C444.134 75.1079 444.741 74.5012 445.226 73.8772C445.608 73.5652 445.989 73.4092 446.37 73.4092C446.717 73.4092 447.012 73.5479 447.254 73.8252C447.532 74.1025 447.67 74.4145 447.67 74.7612C447.67 75.1772 447.497 75.5412 447.15 75.8532C446.11 77.1012 444.758 78.1932 443.094 79.1292C441.43 80.0305 439.61 80.4812 437.634 80.4812Z" fill="white"/>
<path d="M149.621 106.99H149.626C149.254 107.39 148.798 107.704 148.29 107.907C147.785 108.109 147.245 108.212 146.701 108.211C145.549 108.211 144.6 107.813 143.77 106.99C143.376 106.6 143.066 106.135 142.858 105.622C142.658 105.125 142.553 104.595 142.548 104.059C142.553 103.527 142.658 103.001 142.858 102.508C143.061 102.003 143.37 101.547 143.764 101.172H143.778C144.157 100.788 144.608 100.482 145.105 100.273C145.602 100.063 146.136 99.9536 146.675 99.9505C147.214 99.9473 147.749 100.051 148.249 100.254C148.748 100.458 149.202 100.759 149.586 101.138L149.62 101.172L150.919 102.421L153.417 99.8724L152.162 98.6173C151.433 97.8739 150.552 97.2972 149.579 96.9269C148.668 96.5454 147.69 96.3481 146.702 96.3464C145.7 96.351 144.708 96.5502 143.782 96.933C142.825 97.3126 141.956 97.8872 141.233 98.6204C140.5 99.3428 139.926 100.211 139.549 101.169C138.817 103.032 138.817 105.102 139.549 106.965C139.927 107.924 140.501 108.794 141.233 109.52C141.959 110.252 142.823 110.833 143.775 111.23H143.816C144.741 111.591 145.724 111.779 146.716 111.782C147.692 111.769 148.66 111.604 149.585 111.293C150.551 110.841 151.424 110.263 152.152 109.523L153.401 108.274L150.909 105.744L149.621 106.99Z" fill="white"/>
<path d="M166.001 105.976L164.983 106.994C164.319 107.651 163.573 108.043 162.694 108.189C162.494 108.215 162.294 108.227 162.093 108.227C161.616 108.232 161.142 108.148 160.695 107.98L168.789 99.8861L167.531 98.6211C166.795 97.8811 165.911 97.3039 164.938 96.9269C164.017 96.5417 163.029 96.3439 162.032 96.345C161.034 96.346 160.046 96.5459 159.127 96.9329C158.169 97.3171 157.3 97.8911 156.571 98.6204C155.841 99.3496 155.267 100.219 154.883 101.176C154.519 102.095 154.332 103.075 154.333 104.063C154.332 105.062 154.517 106.053 154.876 106.984V106.997C155.258 107.956 155.833 108.826 156.565 109.552C158.009 111.005 159.97 111.824 162.018 111.83C164.066 111.837 166.032 111.029 167.484 109.586L167.522 109.555L168.787 108.29L166.238 105.735L166.001 105.976ZM157.881 104.084C157.888 102.933 158.286 101.984 159.102 101.162C159.766 100.505 160.499 100.125 161.353 100.005C161.561 99.9745 161.77 99.9595 161.979 99.9605C162.458 99.9566 162.934 100.04 163.383 100.207C163.124 100.467 162.801 100.776 162.422 101.137L160.675 102.885L158.962 104.592L158.126 105.434C157.968 105 157.887 104.542 157.886 104.08L157.881 104.084ZM166.194 106.217L165.979 106.002L166.194 106.211V106.217Z" fill="white"/>
<path d="M198.252 105.76L196.949 107.018C196.577 107.416 196.121 107.727 195.615 107.93C195.11 108.131 194.572 108.234 194.028 108.233C192.877 108.227 191.922 107.835 191.1 107.013C190.703 106.624 190.39 106.156 190.183 105.64C189.777 104.642 189.777 103.524 190.183 102.525C190.385 102.021 190.697 101.568 191.095 101.197C191.669 100.621 192.401 100.227 193.198 100.065C193.996 99.9031 194.823 99.9798 195.577 100.286C196.092 100.493 196.559 100.804 196.949 101.197L198.246 102.456L200.763 99.9006L199.506 98.6455C198.771 97.9035 197.888 97.3258 196.914 96.9505C195.999 96.5695 195.018 96.372 194.027 96.3693C193.024 96.3731 192.031 96.5728 191.105 96.9573C190.145 97.3366 189.275 97.9115 188.55 98.6455C187.815 99.3699 187.24 100.24 186.861 101.2C186.128 103.068 186.128 105.144 186.861 107.012C187.24 107.973 187.813 108.845 188.545 109.573C189.273 110.309 190.139 110.893 191.094 111.293H191.1C192.032 111.655 193.022 111.841 194.022 111.843C195.013 111.842 195.995 111.655 196.918 111.293C197.889 110.902 198.769 110.317 199.506 109.573L200.765 108.315L198.252 105.76Z" fill="white"/>
<path d="M217.259 104.044C217.265 103.012 216.682 101.042 216.682 101.042C216.304 100.121 215.739 99.2886 215.023 98.5976C214.313 97.8826 213.467 97.3183 212.534 96.9383C211.586 96.5206 210.561 96.3091 209.525 96.3176C208.49 96.3134 207.465 96.5248 206.516 96.9383H206.501C205.564 97.3212 204.714 97.8874 203.999 98.6037C203.293 99.3149 202.726 100.152 202.328 101.073C201.958 101.941 201.767 102.873 201.741 103.96H201.8V104.213H201.807C201.832 105.281 202.015 106.192 202.369 107.052C202.369 107.052 203.313 108.813 204.003 109.529H204.009C204.715 110.244 205.557 110.81 206.486 111.194C207.432 111.61 208.455 111.819 209.488 111.809C210.526 111.826 211.555 111.617 212.503 111.194C213.432 110.813 214.277 110.25 214.987 109.539C215.697 108.828 216.259 107.982 216.639 107.052C217.055 106.104 217.266 105.079 217.259 104.044ZM213.246 105.596C213.082 106.097 212.795 106.548 212.41 106.908C212.033 107.275 211.59 107.567 211.104 107.769C210.064 108.17 208.913 108.17 207.873 107.769C207.376 107.575 206.924 107.283 206.543 106.909C206.162 106.536 205.862 106.089 205.659 105.596C205.464 105.128 205.361 104.628 205.355 104.122C205.355 103.701 205.456 102.94 205.659 102.462C205.868 101.983 206.168 101.548 206.542 101.182C206.922 100.805 207.375 100.51 207.873 100.315V100.29H207.879C208.912 99.8877 210.058 99.8877 211.091 100.29H211.104C211.587 100.499 212.026 100.799 212.395 101.175H212.408C212.792 101.537 213.098 101.973 213.31 102.456V102.469C213.516 102.955 213.622 103.477 213.619 104.005C213.625 104.55 213.513 105.091 213.291 105.59L213.246 105.596Z" fill="white"/>
<path d="M233.763 107.142C233.763 106.512 233.632 105.888 233.378 105.312C233.371 105.305 233.397 105.299 233.397 105.299C233.149 104.736 232.794 104.226 232.352 103.799C231.924 103.371 231.41 103.039 230.845 102.823L230.832 102.811C230.256 102.551 229.001 102.38 229.001 102.38H223.181C223.034 102.385 222.887 102.36 222.75 102.305C222.612 102.251 222.488 102.169 222.384 102.064C222.171 101.838 222.053 101.539 222.055 101.229C222.049 100.936 222.16 100.653 222.362 100.442C222.564 100.23 222.841 100.107 223.134 100.1H232.403V96.4955H223.269C223.269 96.4955 221.992 96.6049 221.404 96.8632C220.852 97.0923 220.352 97.4279 219.93 97.8509C219.501 98.299 219.144 98.8118 218.874 99.3704V99.3954C218.644 99.9757 218.529 100.595 218.533 101.219C218.533 101.855 218.874 103.078 218.874 103.078V103.071H218.88C219.129 103.625 219.475 104.13 219.9 104.563C220.313 104.993 220.802 105.34 221.344 105.587V105.6H221.35C221.945 105.821 223.209 105.98 223.209 105.98H228.92C229.044 105.98 229.168 105.999 229.286 106.037L229.4 106.126C229.656 106.393 229.799 106.749 229.799 107.119C229.799 107.489 229.656 107.844 229.4 108.111L229.286 108.206C229.167 108.239 229.044 108.256 228.92 108.257H219.886V111.861H228.998C229.627 111.861 230.832 111.545 230.832 111.545H230.838C231.4 111.294 231.913 110.944 232.352 110.513C232.789 110.081 233.135 109.567 233.371 108.999C233.629 108.414 233.762 107.781 233.763 107.142Z" fill="white"/>
<path d="M250.316 96.5585H246.762V104.118C246.787 104.671 246.68 105.223 246.452 105.728H246.446V105.698C246.247 106.202 245.945 106.658 245.56 107.038C244.967 107.608 244.222 107.996 243.415 108.154C242.607 108.312 241.771 108.234 241.007 107.93C240.524 107.705 240.08 107.404 239.692 107.038C239.322 106.645 239.023 106.192 238.807 105.698C238.595 105.184 238.504 104.628 238.541 104.073V96.2424H235V103.996C235 103.996 235.158 106.047 235.569 106.993C235.948 107.91 236.498 108.747 237.189 109.459C237.883 110.173 238.718 110.733 239.642 111.103H239.649C240.584 111.528 241.6 111.744 242.627 111.736C243.645 111.742 245.606 111.167 245.606 111.167H245.587C246.504 110.762 247.337 110.192 248.047 109.485C248.751 108.773 249.31 107.931 249.691 107.006C250.102 106.06 250.311 105.039 250.305 104.008L250.316 96.5585Z" fill="white"/>
<path d="M266.998 90.3612H263.393V96.2424H259.298C258.274 96.2357 257.261 96.4444 256.323 96.8548C255.4 97.2337 254.56 97.792 253.854 98.4973C253.145 99.1899 252.577 100.013 252.183 100.922H252.134C252.084 101.042 252.039 101.163 251.995 101.283C251.575 102.496 251.451 103.792 251.634 105.063C251.723 105.75 251.906 106.421 252.179 107.057C252.877 108.724 254.18 110.065 255.826 110.812C255.933 110.863 256.041 110.926 256.154 110.977L256.053 111.23L256.161 110.977L256.287 111.04C258.082 111.768 260.081 111.817 261.91 111.179L261.935 111.224L261.916 111.179L262.276 111.04H262.283C263.197 110.647 264.027 110.079 264.724 109.369C265.433 108.661 265.996 107.821 266.38 106.896C266.793 105.957 267.004 104.942 267 103.916L266.998 90.3612ZM263.526 104.027C263.527 104.592 263.418 105.152 263.203 105.675V105.725H263.172C262.968 106.234 262.662 106.696 262.273 107.083C261.887 107.467 261.435 107.778 260.939 108.002H260.954C260.421 108.207 259.854 108.31 259.282 108.306V108.274C258.715 108.28 257.599 108.003 257.599 108.003H257.586C257.09 107.751 256.632 107.432 256.224 107.054H256.272C255.902 106.653 255.595 106.2 255.361 105.708C255.176 105.189 255.082 104.642 255.082 104.091C255.072 103.54 255.188 102.993 255.424 102.495C255.607 101.999 255.899 101.551 256.278 101.182C256.659 100.799 257.116 100.5 257.619 100.304C258.132 100.076 259.251 99.9758 259.251 99.9758H263.519L263.526 104.027Z" fill="white"/>
<path d="M184.643 101.064C184.271 100.146 183.713 99.3147 183.004 98.6227C182.3 97.913 181.464 97.3485 180.543 96.9611C179.608 96.5448 178.594 96.3334 177.57 96.3411C176.544 96.3397 175.53 96.5508 174.59 96.9611C173.671 97.3474 172.837 97.9104 172.136 98.6181C171.441 99.3231 170.885 100.153 170.497 101.064C170.086 101.949 169.883 102.91 169.864 104.036V111.861H173.598V104.179C173.594 103.629 173.697 103.084 173.902 102.575C174.116 102.085 174.416 101.637 174.787 101.254C175.162 100.869 175.609 100.564 176.103 100.355H176.109C176.618 100.133 177.168 100.019 177.723 100.019C178.278 100.019 178.827 100.133 179.336 100.355H179.343C179.836 100.552 180.281 100.854 180.645 101.241H180.546C180.915 101.606 181.2 102.046 181.382 102.532V102.545C181.597 103.039 181.704 103.573 181.698 104.111V111.86H185.298V104.065C185.298 104.065 185.054 101.985 184.643 101.064Z" fill="white"/>
<defs>
<filter id="filter0_d_98_13243" x="62.3518" y="60.2526" width="46.6674" height="29.9596" filterUnits="userSpaceOnUse" color-interpolation-filters="sRGB">
<feFlood flood-opacity="0" result="BackgroundImageFix"/>
<feColorMatrix in="SourceAlpha" type="matrix" values="0 0 0 0 0 0 0 0 0 0 0 0 0 0 0 0 0 0 127 0" result="hardAlpha"/>
<feOffset dy="2.72727"/>
<feGaussianBlur stdDeviation="1.36364"/>
<feComposite in2="hardAlpha" operator="out"/>
<feColorMatrix type="matrix" values="0 0 0 0 0.129412 0 0 0 0 0.129412 0 0 0 0 0.129412 0 0 0 0.25 0"/>
<feBlend mode="normal" in2="BackgroundImageFix" result="effect1_dropShadow_98_13243"/>
<feBlend mode="normal" in="SourceGraphic" in2="effect1_dropShadow_98_13243" result="shape"/>
</filter>
</defs>
</svg>
